<?xml version="1.0" standalone="no"?>
<!DOCTYPE svg PUBLIC "-//W3C//DTD SVG 20010904//EN"
 "http://www.w3.org/TR/2001/REC-SVG-20010904/DTD/svg10.dtd">
<svg version="1.0" xmlns="http://www.w3.org/2000/svg"
 width="1728.000000pt" height="1728.000000pt" viewBox="0 0 1728.000000 1728.000000"
 preserveAspectRatio="xMidYMid meet">
<metadata>
Created by potrace 1.11, written by Peter Selinger 2001-2013
</metadata>
<g transform="translate(0.000000,1728.000000) scale(0.100000,-0.100000)"
fill="#000000" stroke="none">
<path d="M8275 17249 c-1437 -53 -2844 -470 -4077 -1210 -1198 -720 -2237
-1759 -2957 -2957 -985 -1642 -1388 -3566 -1150 -5492 23 -188 78 -522 109
-658 11 -50 20 -95 20 -99 2 -30 62 185 80 282 21 119 74 321 90 340 5 6 18
39 30 75 16 47 38 83 83 135 145 165 401 425 419 425 7 0 19 9 26 20 12 21 46
38 89 46 12 2 41 12 65 22 24 10 79 24 123 31 44 7 105 19 135 27 30 8 75 18
100 22 38 7 45 11 43 30 -2 14 3 22 12 22 8 0 24 19 36 43 12 23 25 44 29 47
4 3 10 15 14 28 4 12 11 20 16 17 11 -7 29 25 23 41 -2 5 8 21 22 34 14 13 25
29 25 35 0 13 54 55 70 55 6 0 15 11 20 25 5 14 23 34 40 43 16 9 30 22 30 29
0 6 8 12 18 12 9 0 38 2 64 4 30 3 45 1 41 -6 -4 -6 5 -8 25 -4 25 5 34 2 42
-13 6 -11 19 -20 28 -20 20 0 57 -24 57 -37 2 -20 17 -53 24 -49 9 6 14 -35
19 -151 2 -39 5 -43 27 -43 18 0 25 -5 25 -19 0 -19 94 -76 110 -66 5 3 12 -1
17 -8 9 -16 69 -47 90 -47 7 0 13 -4 13 -10 0 -5 9 -10 20 -10 11 0 20 -4 20
-9 0 -5 17 -15 38 -22 20 -6 42 -15 48 -20 6 -5 14 -5 18 -1 4 4 6 2 4 -4 -5
-16 53 -69 91 -82 18 -7 39 -18 45 -25 6 -8 31 -19 56 -26 25 -7 47 -17 50
-21 3 -4 15 -10 28 -14 16 -5 22 -3 22 8 0 8 -10 17 -23 19 l-22 4 23 2 c12 0
22 8 22 16 0 9 9 15 24 15 14 0 32 7 40 16 14 13 16 13 16 1 0 -9 -6 -17 -12
-20 -7 -2 -10 -8 -6 -12 4 -4 14 -1 22 7 13 13 12 19 -4 45 -26 44 -29 131 -5
167 10 16 20 38 20 49 1 11 13 30 27 42 13 11 23 26 20 33 -2 7 3 12 10 12 17
0 38 -74 38 -133 0 -41 26 -87 49 -87 5 0 14 -27 20 -61 7 -34 15 -58 18 -55
3 3 22 41 43 86 21 45 40 84 44 87 3 4 20 -4 37 -16 27 -20 33 -21 60 -9 16 7
32 21 35 31 4 13 12 17 25 14 19 -5 24 8 20 60 -1 11 3 24 8 28 12 7 14 80 3
137 -6 30 -31 61 -128 160 -66 68 -136 137 -155 154 -48 43 -129 137 -129 149
0 13 131 10 139 -3 8 -12 50 -22 67 -15 8 3 14 16 14 28 0 34 13 37 43 9 14
-13 30 -24 35 -24 6 0 12 -7 16 -15 3 -8 10 -15 16 -15 5 0 10 7 10 15 0 8 5
15 10 15 6 0 10 -9 10 -20 0 -11 -4 -20 -9 -20 -5 0 -7 -9 -4 -20 5 -20 17
-24 61 -20 13 1 30 -7 37 -17 13 -17 14 -17 20 0 4 9 12 17 18 17 8 0 8 -3 0
-11 -8 -8 -8 -20 -1 -40 11 -31 38 -40 38 -13 0 9 5 14 12 12 15 -5 15 -107 0
-134 -6 -11 -13 -35 -16 -54 -3 -19 -13 -79 -21 -132 -14 -87 -24 -122 -54
-193 -9 -21 -26 -176 -37 -333 -3 -50 -10 -94 -14 -97 -23 -14 -58 22 -93 96
-21 43 -42 79 -47 79 -30 0 -8 -282 35 -465 9 -38 20 -88 25 -110 4 -22 13
-41 19 -43 16 -5 13 -32 -4 -38 -19 -8 -20 -64 -1 -64 10 0 12 -9 5 -42 -4
-24 -8 -83 -9 -131 0 -49 -5 -109 -11 -134 l-12 -45 -12 28 -11 29 -12 -48
c-11 -41 -20 -53 -72 -89 -33 -24 -78 -54 -101 -68 -23 -14 -56 -34 -74 -46
-17 -11 -62 -38 -101 -59 -38 -21 -107 -63 -154 -94 -47 -31 -89 -58 -95 -60
-5 -2 -37 -21 -70 -41 -56 -34 -100 -59 -265 -148 -36 -19 -72 -40 -80 -47 -8
-7 -33 -22 -55 -34 -22 -12 -47 -25 -55 -30 -8 -4 -33 -16 -55 -26 -22 -9 -48
-21 -57 -26 -10 -5 -25 -9 -33 -9 -8 0 -15 -4 -15 -10 0 -5 -5 -10 -11 -10 -6
0 -42 -14 -79 -30 -82 -36 -130 -47 -130 -31 0 6 6 11 14 11 8 0 16 7 20 15 3
8 12 15 21 15 8 0 15 7 15 15 0 8 4 15 8 15 4 0 36 18 70 40 33 22 66 40 72
40 6 0 8 5 5 10 -3 6 3 10 14 10 14 0 21 6 21 19 0 11 23 38 51 63 28 23 61
53 74 65 13 13 48 34 77 47 31 14 60 36 68 50 7 14 20 26 28 26 7 0 26 9 41
19 15 11 43 22 63 26 21 4 42 13 49 21 6 8 17 14 25 14 16 0 78 57 92 85 6 11
12 45 14 74 3 55 3 55 -29 62 -18 3 -39 11 -45 17 -7 5 -33 13 -57 16 -24 3
-50 11 -57 17 -21 17 -105 23 -309 22 -121 -1 -226 -8 -290 -18 -187 -30 -440
-65 -510 -71 -50 -4 -140 -29 -311 -86 -215 -71 -258 -89 -390 -163 -81 -46
-183 -101 -226 -122 -48 -23 -78 -44 -78 -54 0 -70 207 -700 317 -961 43 -104
46 -108 71 -102 15 4 35 11 44 15 9 5 27 9 39 9 12 0 63 13 113 30 126 41 292
90 346 102 25 6 50 14 56 19 13 10 170 69 314 117 140 46 241 82 262 93 10 5
26 9 36 9 19 0 125 41 165 63 12 7 34 22 50 34 15 12 43 25 62 29 20 3 38 10
40 15 3 4 36 23 73 42 37 19 94 49 127 66 33 17 70 31 83 31 12 0 25 6 28 14
3 8 12 12 19 10 8 -3 24 6 36 20 13 15 61 46 108 70 156 79 226 117 261 145
19 15 49 35 66 44 17 9 36 23 43 31 7 9 29 18 48 22 31 6 39 2 67 -27 39 -40
71 -100 80 -150 5 -28 30 -60 114 -147 96 -99 110 -118 136 -186 20 -55 27
-85 22 -108 -6 -31 -51 -88 -69 -88 -5 0 -26 -13 -46 -29 -66 -53 -157 -89
-280 -112 -112 -21 -154 -38 -216 -90 -11 -9 -45 -29 -75 -45 -30 -16 -57 -32
-60 -36 -8 -10 -80 -58 -88 -58 -4 0 -23 -16 -42 -35 -19 -19 -39 -35 -45 -35
-5 0 -24 -13 -41 -29 -17 -16 -100 -76 -185 -132 -133 -89 -258 -178 -295
-208 -5 -4 -21 -14 -35 -21 -21 -12 -67 -47 -109 -84 -8 -7 -35 -26 -60 -41
-25 -16 -63 -42 -85 -59 -22 -17 -47 -35 -56 -41 -43 -27 -105 -69 -109 -74
-3 -3 -32 -26 -65 -51 -33 -25 -62 -47 -65 -50 -3 -3 -48 -38 -100 -78 -52
-39 -113 -87 -134 -106 l-40 -33 44 -74 c70 -119 260 -403 367 -549 830 -1133
1932 -2065 3142 -2657 218 -106 438 -203 445 -195 17 17 -14 97 -92 237 -10
18 -37 79 -75 165 -8 19 -22 55 -30 80 -24 70 -46 118 -57 125 -15 9 -12 42 6
76 23 46 124 81 124 44 0 -9 9 -15 25 -15 13 0 28 -6 32 -13 4 -6 22 -19 38
-27 17 -8 34 -21 38 -27 4 -7 14 -13 22 -13 8 0 35 -11 61 -25 26 -14 53 -25
59 -25 7 0 15 -6 18 -13 3 -8 27 -22 54 -32 26 -10 50 -22 53 -26 8 -12 118
-59 139 -59 10 0 25 8 33 18 16 18 31 112 18 112 -12 0 -49 163 -57 255 -3 33
-10 66 -15 72 -6 7 -7 13 -4 13 4 0 0 7 -8 16 -9 8 -16 30 -17 47 l-1 32 -14
-33 c-9 -20 -27 -38 -45 -46 -29 -12 -30 -13 -9 -19 34 -9 22 -41 -16 -45 -27
-3 -33 1 -44 28 -7 17 -26 38 -41 46 -16 8 -29 18 -29 22 0 13 44 49 85 70 39
19 76 57 130 131 14 19 25 40 25 45 1 6 37 42 80 81 44 38 80 73 80 77 0 4 5
8 11 8 11 0 32 16 117 86 20 17 80 59 132 93 52 34 113 82 135 105 40 43 91
76 119 76 17 0 142 65 171 89 11 9 42 27 69 41 26 14 53 35 59 48 7 14 16 20
27 17 10 -3 23 1 30 10 7 8 18 15 24 15 6 0 16 11 23 25 9 20 8 25 -2 25 -8 0
-17 -4 -20 -10 -3 -5 -15 -10 -25 -10 -10 0 -20 -6 -23 -12 -2 -7 -8 -9 -13
-5 -5 4 -2 13 6 18 11 8 12 12 3 16 -7 2 -13 21 -13 42 0 42 -51 145 -79 160
-10 6 -23 34 -31 68 -8 32 -23 67 -33 78 -11 11 -26 30 -34 43 -9 12 -21 22
-29 22 -7 0 -11 6 -8 14 3 8 1 17 -4 20 -14 9 -42 -4 -42 -18 0 -7 -14 -28
-31 -47 -17 -19 -49 -61 -71 -93 -47 -68 -61 -86 -105 -135 -18 -19 -33 -38
-33 -42 0 -17 -105 -112 -133 -120 -41 -12 -87 -12 -87 0 0 5 -13 12 -28 16
-15 3 -35 15 -42 26 -8 11 -32 22 -52 26 -23 3 -38 11 -38 19 0 8 -6 14 -14
14 -8 0 -21 7 -29 15 -8 8 -36 19 -62 25 -47 10 -48 10 -76 -21 -16 -18 -29
-29 -29 -24 0 5 -7 0 -15 -11 -14 -18 -14 -18 -15 -1 0 17 -4 16 -31 -7 -39
-33 -62 -39 -143 -34 -46 2 -66 -1 -66 -9 0 -7 18 -14 43 -16 23 -2 5 -4 -40
-5 -68 -2 -83 1 -83 13 0 12 -16 15 -77 16 -115 1 -163 14 -163 44 0 8 -9 15
-21 15 -22 0 -109 55 -109 69 0 5 -10 12 -22 15 -30 8 -89 59 -92 80 -1 8 -11
26 -22 38 -11 13 -28 35 -37 50 -11 18 -22 25 -33 21 -11 -4 -34 13 -75 57
-33 34 -59 68 -59 75 0 7 -12 21 -28 30 -37 24 -62 51 -62 69 0 7 -6 16 -14
19 -8 3 -17 20 -21 38 -4 19 -15 33 -26 36 -10 3 -19 14 -19 24 0 11 -4 19
-10 19 -5 0 -10 8 -10 19 0 11 -9 21 -21 24 -16 4 -20 11 -16 26 3 11 -1 28
-9 38 -7 10 -14 24 -14 31 0 7 -7 20 -15 28 -8 8 -19 41 -26 74 -6 33 -20 70
-31 82 -11 13 -30 46 -43 74 -13 28 -28 55 -34 58 -6 4 -11 14 -11 22 0 14
-36 73 -53 85 -16 12 -34 145 -27 200 4 29 6 57 3 61 -2 4 5 12 16 18 17 9 24
4 50 -34 17 -25 31 -54 31 -65 0 -14 6 -21 20 -21 11 0 20 -7 20 -15 0 -9 20
-35 45 -58 25 -24 45 -52 45 -61 0 -10 9 -20 20 -23 11 -3 20 -10 20 -16 0
-12 50 -67 61 -67 10 0 69 -57 69 -67 0 -5 18 -20 41 -33 48 -30 88 -62 139
-113 21 -20 45 -37 54 -37 10 0 13 -6 9 -15 -4 -13 1 -15 36 -9 43 7 55 -8 29
-34 -9 -9 -9 -12 0 -12 7 0 12 4 12 9 0 10 26 9 36 -2 12 -11 204 -8 204 3 0
6 18 10 40 10 38 0 40 2 40 30 0 23 5 30 19 30 11 0 27 10 35 22 9 12 16 19
16 16 0 -4 20 0 45 9 25 8 45 19 45 24 0 5 18 9 40 9 22 0 40 5 40 11 0 6 33
9 93 8 97 -1 128 -9 87 -20 -20 -6 -16 -7 18 -8 24 -1 41 3 38 7 -6 10 241 6
289 -4 43 -9 191 -23 323 -30 64 -4 112 -10 112 -16 0 -6 8 -7 18 -3 38 15
183 24 272 17 94 -7 118 -3 152 26 8 6 42 12 76 13 34 1 62 6 62 10 0 5 9 9
21 9 12 0 23 8 26 20 3 11 13 20 23 20 10 0 20 4 22 10 3 9 60 27 161 51 21 5
48 16 60 23 12 8 39 17 60 20 58 11 220 66 238 82 8 8 18 14 21 14 2 0 54 28
114 61 60 34 163 89 229 121 66 33 140 69 164 81 42 20 47 28 72 99 23 62 26
78 15 87 -13 11 -66 24 -166 40 -30 5 -80 16 -110 25 -30 8 -86 24 -125 35
-100 28 -246 79 -320 111 -11 5 -42 16 -70 26 -27 9 -54 21 -60 26 -5 4 -22 8
-37 8 -15 0 -28 5 -28 10 0 11 -40 -8 -52 -25 -5 -6 -11 -6 -16 2 -5 7 -23 15
-42 17 -19 2 -36 9 -38 15 -2 6 -27 11 -55 11 -47 0 -126 10 -212 25 -16 3
-54 10 -84 15 -30 6 -72 10 -93 10 -21 0 -57 4 -80 10 -61 14 -290 40 -300 33
-5 -2 -30 0 -56 6 -146 35 -276 30 -542 -20 -79 -15 -490 -23 -490 -10 0 5
-16 13 -35 17 -25 4 -35 11 -33 23 2 12 -6 17 -32 19 -38 3 -187 37 -235 54
-50 18 -184 109 -190 129 -7 21 -36 39 -69 44 -49 7 -194 35 -226 45 -25 7
-53 30 -97 82 -34 40 -75 88 -91 107 -17 18 -29 38 -26 45 3 6 48 36 102 66
53 30 121 74 149 97 29 24 57 43 63 43 5 0 17 12 27 28 9 15 32 51 51 80 19
30 41 72 50 93 20 53 7 66 -41 43 -20 -10 -40 -15 -43 -11 -7 6 14 67 26 77 3
3 28 43 54 89 47 82 89 196 115 311 34 147 45 192 71 275 16 50 37 136 49 193
14 72 28 113 46 136 26 34 33 66 14 66 -7 0 -9 12 -6 33 3 17 10 61 15 97 6
36 15 79 22 96 9 27 8 37 -9 65 -12 19 -21 30 -22 24 -1 -5 -3 -26 -5 -45 -9
-77 -38 -186 -57 -212 -14 -19 -30 -28 -49 -28 l-28 0 0 83 c0 134 17 166 227
433 55 69 73 85 131 111 37 17 107 50 155 72 49 23 92 41 98 41 5 0 9 5 9 10
0 6 7 10 16 10 19 0 144 88 151 107 3 7 12 12 21 11 11 -2 19 9 25 35 5 21 16
41 23 44 8 3 14 11 14 18 0 7 7 18 15 25 10 9 15 32 15 77 0 60 -2 66 -32 94
-25 23 -41 29 -68 27 -67 -3 -74 16 -32 77 81 118 107 147 161 179 69 42 167
150 211 232 18 32 45 78 60 100 15 23 33 59 40 80 25 76 29 80 51 38 10 -21
19 -52 19 -69 0 -26 4 -22 26 30 37 87 43 110 49 189 l7 71 -56 58 c-31 31
-56 62 -56 67 0 6 -3 10 -7 11 -89 9 -124 7 -141 -10 -30 -30 -86 -68 -112
-76 -83 -23 -155 -72 -164 -112 -7 -35 -18 -48 -81 -98 -27 -22 -59 -48 -70
-58 -11 -11 -49 -38 -85 -62 -36 -24 -87 -65 -115 -92 -84 -84 -145 -151 -145
-162 0 -5 -8 -16 -18 -23 -9 -7 -52 -53 -95 -103 -43 -49 -94 -100 -112 -113
-20 -14 -42 -43 -52 -68 -10 -24 -21 -44 -25 -44 -13 0 -8 -81 8 -150 28 -119
28 -113 -6 -138 -40 -30 -64 -23 -50 13 13 33 13 122 1 109 -5 -5 -16 -34 -25
-64 -22 -73 -88 -210 -102 -210 -7 0 -14 -7 -18 -15 -3 -8 -15 -15 -26 -15
-11 0 -20 -7 -20 -15 0 -8 2 -15 5 -15 10 0 161 108 198 142 21 19 50 41 65
49 15 7 41 24 58 36 17 13 36 23 42 23 7 0 12 4 12 9 0 11 55 31 85 31 13 0
25 6 28 14 4 9 14 12 26 9 12 -3 28 0 36 7 8 7 40 11 77 10 90 -3 92 -3 132
29 49 39 120 73 137 66 34 -13 51 -94 34 -157 -7 -29 -5 -28 -132 -59 -36 -9
-54 -19 -61 -34 -15 -32 -90 -80 -186 -119 -69 -28 -120 -58 -240 -138 -10 -7
-33 -28 -50 -47 -17 -18 -75 -78 -130 -133 -96 -96 -99 -99 -139 -96 -36 3
-45 9 -72 46 -27 39 -30 53 -34 129 l-3 86 36 33 c20 19 46 38 57 44 16 9 17
15 8 31 -8 15 -7 34 2 69 10 41 10 52 -2 66 -12 15 -14 14 -22 -17 -5 -19 -14
-63 -21 -98 -6 -36 -17 -66 -23 -68 -14 -5 -24 47 -12 69 5 9 9 26 9 37 0 11
13 39 28 63 16 24 35 63 42 88 8 24 38 78 66 120 28 41 66 104 85 140 40 76
42 79 94 135 91 98 169 195 245 310 55 82 74 105 85 105 14 0 148 71 179 95
18 14 35 25 39 25 3 0 20 14 39 31 122 114 169 167 193 215 22 45 30 53 41 43
20 -17 151 52 213 113 45 45 50 54 56 109 8 67 25 83 56 52 17 -17 27 -18 97
-11 48 5 134 3 227 -4 83 -7 184 -13 225 -12 41 1 198 2 348 2 303 2 376 7
368 28 -3 7 2 20 10 29 14 13 13 15 -5 15 -12 0 -20 3 -20 8 3 18 -2 33 -9 28
-5 -3 -9 54 -9 127 0 73 -5 151 -12 174 -9 33 -9 68 0 152 12 108 12 109 54
153 43 44 105 149 105 177 0 9 10 41 21 71 12 30 24 70 26 88 3 17 9 32 15 32
5 0 8 6 7 13 -6 50 24 41 90 -29 28 -29 51 -56 51 -59 0 -9 81 -110 91 -113 5
-2 9 -8 9 -14 0 -5 13 -22 29 -36 82 -76 123 -112 129 -112 3 0 23 -17 44 -37
36 -36 68 -41 35 -5 -47 50 -57 63 -57 71 0 4 -13 18 -30 31 -16 13 -37 40
-47 61 -9 21 -20 36 -25 33 -11 -7 -10 8 2 26 9 13 13 12 30 -9 11 -13 26 -21
34 -18 8 3 22 -3 31 -13 9 -10 28 -20 43 -23 23 -5 77 -49 163 -132 9 -8 21
-15 27 -15 6 0 15 -7 20 -17 6 -10 16 -14 27 -9 17 6 16 9 -8 34 -15 16 -27
33 -27 38 0 18 -42 56 -55 50 -14 -5 -104 80 -150 140 -28 36 -75 48 -75 19 0
-8 -4 -15 -8 -15 -5 0 -7 12 -5 28 3 21 -5 36 -37 69 -22 24 -49 62 -59 86
-10 24 -37 64 -60 91 -22 26 -46 57 -53 69 -6 12 -17 28 -25 35 -7 7 -13 19
-13 26 0 7 -16 27 -35 46 -19 19 -35 39 -35 44 -1 6 -14 27 -30 46 -17 19 -30
39 -30 44 0 5 -7 18 -17 28 -15 17 -14 18 29 12 32 -4 48 -3 53 6 10 16 -29
50 -56 50 -11 0 -28 6 -39 12 -36 23 -45 -2 -25 -66 10 -31 21 -56 25 -56 4 0
10 -9 13 -20 3 -13 0 -20 -9 -20 -8 0 -14 7 -14 15 0 8 -3 15 -8 15 -4 0 -12
8 -17 19 -6 10 -20 37 -33 60 -32 59 -45 131 -26 152 8 8 14 30 14 47 0 17 5
34 10 37 6 3 10 43 10 87 0 71 -3 85 -25 114 -14 18 -34 35 -44 39 -11 3 -29
25 -41 48 -12 23 -30 51 -40 62 -10 11 -25 38 -34 60 -9 21 -20 42 -24 45 -5
3 -20 21 -34 40 -20 27 -28 52 -34 108 -3 40 -10 74 -14 77 -4 2 -5 18 -2 35
4 29 6 30 41 24 20 -4 53 -18 74 -32 36 -24 40 -24 92 -13 30 7 55 17 55 22 0
13 -19 50 -34 65 -6 7 -40 46 -75 88 -35 42 -68 76 -73 76 -4 0 -8 7 -8 15 0
8 -4 15 -9 15 -4 0 -16 21 -26 48 -10 26 -33 79 -50 117 -18 39 -40 97 -50
130 -10 33 -26 86 -37 117 -24 68 -18 109 28 215 19 43 18 50 -19 118 -20 37
-40 61 -52 64 -26 4 -35 19 -35 59 0 20 6 35 15 38 21 8 75 -15 75 -32 0 -8 7
-14 15 -14 15 0 55 -20 120 -59 21 -12 32 -28 36 -53 3 -23 23 -57 55 -94 77
-90 147 -158 174 -170 94 -42 246 -82 322 -86 32 -1 58 -6 58 -9 0 -10 -30
-20 -41 -14 -16 10 -81 -7 -71 -17 13 -13 122 -1 122 13 0 6 4 8 8 5 4 -3 39
3 76 12 61 16 67 19 51 32 -15 13 -15 15 7 26 29 17 65 18 70 2 3 -8 9 -8 22
-1 13 7 15 13 7 17 -21 13 -11 28 14 22 17 -4 31 -1 41 8 8 9 21 19 29 24 8 4
16 19 17 32 3 23 -1 25 -43 28 -40 3 -51 -1 -80 -28 -43 -40 -142 -86 -217
-101 -49 -10 -71 -9 -142 5 -90 18 -207 74 -202 96 2 9 -5 10 -23 6 -14 -4
-25 -2 -25 4 0 5 14 10 30 10 22 0 30 5 30 18 0 10 5 23 11 29 16 16 2 21 -86
28 -44 4 -84 11 -89 16 -6 6 -6 9 0 9 6 0 56 7 111 15 86 13 114 13 204 1 57
-7 105 -12 107 -10 5 4 -88 44 -103 44 -6 0 -38 9 -70 20 -32 11 -70 20 -84
20 -15 0 -36 7 -47 14 -12 9 -42 14 -70 14 -51 -1 -139 34 -228 92 -77 49
-139 116 -88 95 9 -4 27 -9 39 -10 12 -2 27 -6 32 -10 6 -3 11 -3 11 2 0 4
-24 19 -53 32 -70 32 -147 97 -147 124 0 12 6 33 13 47 46 90 60 155 81 385 8
83 22 221 31 309 18 165 14 263 -17 396 -19 82 -15 355 6 459 38 180 129 409
186 471 14 15 38 43 52 62 15 19 56 66 93 104 36 38 72 81 80 95 16 29 118
134 163 167 17 12 41 22 53 22 11 0 33 6 47 14 28 14 103 33 162 40 19 2 46 9
60 14 32 12 200 16 200 4 0 -5 60 -12 133 -15 212 -10 317 -37 383 -98 11 -10
25 -19 31 -19 22 0 193 -181 193 -204 0 -4 18 -25 40 -47 22 -22 40 -48 40
-59 0 -10 4 -22 10 -25 5 -3 22 -31 37 -61 14 -30 30 -54 34 -54 4 0 10 -18
14 -40 4 -22 11 -40 16 -40 5 0 9 -9 9 -20 0 -10 7 -23 15 -28 31 -17 53 -155
54 -337 0 -93 4 -171 9 -173 11 -3 -1 -109 -18 -153 -12 -34 -11 -40 12 -85
16 -32 33 -50 47 -52 11 -2 21 -6 22 -10 2 -17 8 -39 17 -64 8 -20 16 -25 31
-21 16 4 22 -2 31 -39 6 -23 17 -64 25 -90 8 -26 15 -56 15 -67 0 -11 5 -23
10 -26 6 -3 10 -16 10 -27 0 -12 14 -45 30 -75 17 -29 30 -62 30 -73 0 -11 6
-20 14 -20 8 0 16 -10 20 -23 3 -12 14 -32 26 -44 11 -12 20 -24 20 -26 0 -3
16 -21 35 -42 19 -21 33 -41 32 -44 -4 -16 14 -91 22 -91 6 0 13 -10 17 -22 4
-13 9 -25 13 -28 22 -18 53 -112 57 -171 1 -20 10 -51 19 -68 19 -37 13 -64
-21 -98 -14 -14 -31 -35 -40 -48 -9 -13 -24 -27 -34 -30 -10 -3 -22 -19 -25
-35 -4 -17 -11 -30 -16 -30 -5 0 -14 -11 -19 -25 -5 -14 -15 -25 -21 -25 -6 0
-24 -12 -39 -27 l-29 -27 31 -13 c35 -15 120 -16 193 -3 28 5 71 13 98 16 26
4 47 10 47 14 0 3 13 5 29 2 16 -2 44 1 63 7 18 6 54 13 81 15 26 3 56 8 67
11 23 7 26 -1 8 -19 -15 -14 -122 -66 -138 -66 -5 0 -18 -4 -28 -9 -9 -5 -25
-12 -34 -15 -32 -10 -19 -26 20 -26 45 0 58 -9 36 -24 -13 -10 -12 -16 11 -51
15 -21 29 -53 32 -70 4 -27 1 -35 -23 -51 -87 -57 -180 -80 -261 -64 -95 19
-152 43 -201 84 -58 47 -76 54 -125 48 -28 -3 -37 -8 -33 -19 3 -8 6 -16 6
-19 0 -10 63 -34 90 -34 23 0 33 -5 37 -20 3 -11 11 -20 18 -20 17 0 75 -33
75 -42 0 -5 7 -8 15 -8 8 0 15 -4 15 -9 0 -5 15 -9 33 -9 28 0 157 -8 197 -13
8 -1 -7 -7 -35 -14 l-50 -12 50 -7 c28 -4 82 -2 120 3 87 13 85 13 85 1 0 -5
-7 -10 -15 -10 -23 0 -30 -29 -11 -43 16 -12 16 -14 -3 -31 -17 -16 -42 -20
-126 -24 -58 -3 -108 -9 -111 -13 -3 -5 1 -10 8 -10 7 -1 -5 -5 -27 -9 -39 -6
-39 -7 -15 -18 24 -10 24 -11 3 -11 -22 -1 -25 2 -27 32 -1 16 -35 36 -61 37
-11 0 -33 7 -49 15 -15 8 -35 15 -42 15 -8 0 -14 4 -14 10 0 5 -7 7 -15 4 -8
-4 -15 -1 -15 5 0 7 -8 11 -17 9 -11 -2 -22 8 -31 27 -18 37 -86 110 -129 136
-47 29 -103 81 -103 95 0 15 -114 64 -150 64 -16 0 -32 5 -35 10 -3 6 -21 10
-38 9 l-32 -1 29 -13 c70 -30 19 -99 -81 -110 -71 -7 -85 -14 -91 -46 -2 -13
-5 -217 -6 -454 -1 -380 1 -436 16 -480 9 -27 20 -93 23 -145 4 -60 14 -113
27 -144 13 -33 18 -62 15 -88 -5 -37 -4 -38 25 -38 17 0 52 13 77 28 75 46
123 65 172 70 l46 4 6 -103 c5 -109 20 -165 50 -187 9 -7 15 -17 12 -22 -3 -5
-1 -11 5 -15 19 -11 10 -34 -17 -48 -16 -8 -73 -22 -128 -31 -118 -20 -189
-42 -229 -69 -21 -15 -54 -22 -119 -28 -49 -4 -96 -5 -103 -2 -7 2 -21 0 -31
-5 -16 -9 -15 -11 7 -16 14 -2 70 -8 125 -11 55 -3 120 -10 145 -15 26 -5 87
-5 147 1 84 8 109 7 138 -5 57 -24 45 -44 -55 -92 -30 -14 -75 -35 -98 -46
-27 -13 -39 -23 -32 -28 6 -4 55 -5 109 -2 110 5 162 -7 179 -41 6 -12 13 -56
15 -97 4 -58 0 -91 -18 -151 -13 -43 -21 -87 -18 -98 3 -12 1 -27 -5 -34 -6
-7 -9 -22 -6 -34 7 -25 -43 -105 -131 -211 -116 -139 -117 -142 -112 -163 4
-16 -3 -25 -28 -41 l-34 -20 32 -32 c18 -18 57 -51 87 -73 73 -53 130 -111
130 -132 0 -10 -13 -44 -28 -77 -16 -32 -37 -81 -47 -109 -9 -27 -22 -60 -27
-72 -13 -28 -3 -43 29 -43 16 0 27 7 30 20 4 14 14 20 35 20 37 0 68 16 68 36
0 32 33 8 45 -33 11 -35 10 -44 -1 -54 -19 -15 -18 -30 1 -23 8 4 30 -5 48
-18 17 -14 43 -29 57 -33 14 -4 48 -18 75 -30 28 -12 66 -28 85 -35 130 -49
372 -184 540 -303 312 -220 615 -572 772 -897 46 -95 88 -190 88 -198 0 -5 9
-26 19 -48 11 -22 23 -54 26 -70 4 -16 10 -38 15 -49 4 -11 13 -40 20 -65 6
-25 15 -58 20 -75 5 -16 15 -66 23 -110 9 -44 21 -111 28 -150 18 -98 18 -527
0 -620 -7 -38 -24 -128 -38 -200 -13 -71 -33 -155 -43 -185 -10 -30 -24 -82
-31 -115 -7 -33 -17 -63 -22 -67 -6 -3 -10 -28 -9 -55 0 -26 -4 -51 -9 -54
-16 -9 23 -77 48 -83 11 -3 40 -33 62 -66 33 -48 41 -69 41 -105 0 -25 -4 -45
-9 -45 -6 0 -11 -21 -13 -47 -3 -48 -3 -48 -40 -51 -22 -2 -38 1 -38 7 0 12
-45 -2 -67 -21 -11 -9 -10 -13 2 -22 9 -6 14 -22 13 -36 -3 -21 2 -26 25 -28
15 -2 27 -7 27 -11 0 -5 19 -13 43 -19 23 -6 71 -18 107 -27 36 -9 80 -20 97
-24 18 -5 50 -18 71 -29 21 -11 55 -20 75 -20 20 0 60 -8 88 -17 45 -15 76
-17 209 -12 154 6 259 20 292 38 10 5 45 9 78 9 l59 0 -20 -34 c-17 -30 -18
-35 -4 -46 10 -8 29 -10 56 -6 35 6 43 3 70 -23 16 -16 29 -32 29 -34 0 -3
-12 -7 -27 -10 -16 -3 -45 -10 -66 -15 -34 -9 -39 -8 -54 14 -18 28 -51 32
-59 7 -12 -39 -22 -47 -65 -50 -36 -3 -49 0 -64 17 -19 21 -51 27 -57 11 -6
-17 -374 8 -458 31 -41 11 -115 28 -165 39 -49 10 -108 25 -130 33 -22 8 -91
17 -153 20 -148 7 -193 -4 -241 -61 -19 -24 -40 -43 -46 -43 -6 0 -17 -9 -25
-20 -8 -11 -20 -20 -26 -20 -6 0 -18 -7 -25 -17 -8 -9 -27 -22 -44 -30 -41
-19 -70 -36 -89 -52 -9 -8 -26 -11 -41 -7 -27 7 -32 -3 -13 -22 9 -9 8 -12 -4
-12 -9 0 -19 4 -23 10 -3 5 -12 7 -20 4 -8 -4 -12 -10 -9 -15 5 -9 -7 -16 -38
-24 -42 -10 -58 -19 -63 -36 -5 -14 -16 -19 -41 -19 -33 0 -72 -15 -85 -34 -4
-5 -12 -6 -17 -2 -6 4 -19 3 -29 -2 -50 -26 -72 -34 -80 -29 -4 3 -26 -3 -48
-13 -22 -11 -48 -19 -57 -20 -9 0 -19 -3 -22 -8 -11 -18 -234 -121 -341 -158
-121 -41 -144 -50 -151 -57 -4 -4 -17 -7 -28 -7 -12 0 -33 -8 -46 -17 -14 -10
-27 -16 -30 -15 -3 1 -24 0 -47 -4 -42 -6 -56 -18 -31 -26 7 -3 -9 -13 -36
-24 l-47 -19 6 -45 c8 -56 18 -68 75 -93 43 -18 208 -118 240 -144 8 -7 29
-23 46 -35 81 -59 153 -116 199 -158 60 -55 99 -82 143 -99 17 -8 32 -17 32
-21 0 -3 23 -17 50 -30 28 -13 50 -27 50 -32 0 -12 -14 -10 -29 5 -11 10 -13
9 -9 -3 5 -18 84 -59 115 -59 12 -1 28 5 35 12 7 7 31 18 52 24 46 14 90 -3
101 -38 7 -22 0 -34 -33 -53 -11 -6 -31 -19 -45 -29 -23 -17 -30 -17 -88 -3
-61 14 -89 12 -89 -5 0 -5 -6 -9 -14 -9 -7 0 -19 -7 -26 -15 -7 -8 -49 -32
-94 -54 -72 -35 -113 -48 -168 -54 -32 -3 -19 -23 22 -37 22 -7 40 -17 40 -22
0 -4 7 -8 15 -8 19 0 19 -14 2 -32 -13 -13 -32 -66 -29 -80 1 -5 -3 -8 -8 -8
-6 0 -10 -8 -10 -18 0 -10 -18 -37 -40 -60 -22 -22 -40 -48 -40 -56 0 -8 -11
-23 -25 -34 -14 -11 -25 -24 -25 -29 0 -5 -9 -16 -20 -26 -11 -9 -23 -31 -27
-47 -8 -42 -63 -82 -152 -113 -41 -15 -79 -33 -83 -42 -5 -8 -16 -15 -23 -15
-8 0 -15 -6 -15 -14 0 -9 -7 -12 -19 -9 -13 3 -24 -5 -40 -30 -11 -19 -21 -42
-21 -50 0 -9 -27 -43 -60 -76 -33 -33 -60 -66 -60 -74 0 -19 49 -67 67 -67 9
0 24 -11 35 -25 11 -14 24 -25 30 -25 6 0 49 -38 96 -85 67 -67 91 -85 111
-83 14 1 36 -4 48 -10 12 -7 28 -12 37 -12 8 0 43 -13 78 -29 35 -16 113 -40
174 -54 112 -25 184 -52 184 -68 0 -5 -6 -9 -14 -9 -8 0 -25 -18 -37 -40 -12
-21 -27 -36 -32 -33 -6 3 -7 1 -3 -5 7 -12 -19 -55 -66 -107 -16 -16 -28 -34
-28 -38 0 -9 -14 -27 -52 -69 -16 -16 -28 -31 -28 -33 0 -7 -101 -99 -131
-120 -16 -11 -29 -25 -29 -32 0 -6 -19 -18 -42 -25 -23 -8 -46 -23 -52 -33 -6
-11 -17 -25 -23 -33 -7 -7 -13 -17 -13 -22 0 -5 -23 -32 -50 -60 -27 -28 -50
-56 -50 -61 0 -5 -6 -9 -13 -9 -16 0 -77 -62 -77 -78 0 -7 -4 -11 -8 -9 -5 1
-21 -13 -36 -30 -15 -18 -32 -33 -37 -33 -9 0 -37 -21 -71 -53 -10 -9 -29 -17
-42 -17 -15 0 -32 -10 -43 -25 l-18 -26 -32 27 c-43 35 -88 116 -102 184 -7
30 -21 84 -32 119 -29 94 -51 232 -56 346 -2 55 -8 114 -13 130 -6 17 -11 90
-13 162 -2 113 0 134 16 150 9 11 17 31 17 46 0 44 47 156 79 188 30 29 51 82
51 126 0 12 -14 42 -30 66 -17 25 -30 48 -30 53 0 4 -10 21 -23 38 -13 17 -34
60 -47 96 -13 36 -32 83 -43 104 -10 21 -25 84 -32 140 l-14 101 27 22 c21 18
27 32 29 65 1 24 -4 49 -10 57 -16 18 -66 195 -81 284 -11 59 -21 48 -56 -58
-7 -22 -29 -69 -50 -105 -21 -36 -43 -82 -50 -104 -7 -22 -20 -41 -31 -43 -11
-3 -19 -9 -19 -14 0 -5 -11 -14 -25 -19 -14 -5 -25 -16 -25 -25 0 -8 -16 -21
-36 -30 -46 -19 -37 -31 25 -37 77 -8 85 -20 52 -77 -16 -26 -34 -64 -42 -84
-7 -20 -17 -37 -21 -37 -4 0 -8 -6 -8 -14 0 -13 -109 -112 -160 -146 -13 -8
-34 -25 -48 -37 -14 -13 -31 -23 -38 -23 -7 0 -29 -17 -49 -39 -39 -41 -88
-61 -151 -61 -36 -1 -327 -38 -455 -59 -31 -5 -67 -14 -79 -21 -43 -23 -215
-80 -241 -80 -15 0 -32 -7 -39 -15 -7 -8 -20 -15 -29 -15 -9 0 -31 -9 -49 -20
-19 -12 -42 -18 -52 -15 -13 4 -22 -1 -30 -16 -9 -15 -18 -20 -36 -16 -14 2
-27 1 -29 -3 -8 -12 53 -18 98 -9 143 27 311 44 427 43 121 0 277 -12 298 -22
9 -5 22 -7 28 -5 7 2 38 -9 70 -26 33 -16 71 -33 87 -36 15 -4 27 -11 27 -17
0 -5 17 -16 38 -25 20 -8 44 -21 52 -28 8 -7 40 -21 72 -30 39 -13 59 -25 67
-41 5 -13 22 -30 36 -40 14 -9 25 -23 25 -30 0 -8 5 -14 10 -14 6 0 18 -15 27
-34 15 -32 15 -37 -1 -70 -9 -19 -21 -38 -26 -41 -6 -3 -10 -17 -10 -30 0 -13
-5 -27 -10 -30 -15 -9 -70 -124 -70 -145 0 -10 -7 -20 -15 -24 -8 -3 -15 -12
-15 -21 0 -18 -123 -140 -163 -161 -15 -8 -25 -19 -21 -25 3 -5 -13 -17 -35
-26 -22 -9 -43 -23 -46 -32 -5 -16 -70 -51 -93 -51 -7 0 -12 -4 -12 -9 0 -5
-20 -12 -45 -15 -24 -4 -47 -12 -51 -17 -3 -6 -13 -8 -21 -5 -8 3 -25 -1 -39
-10 -13 -9 -43 -16 -67 -16 -23 1 -78 -8 -122 -18 -44 -10 -107 -22 -140 -25
-33 -4 -84 -15 -115 -26 -77 -27 -200 -40 -352 -37 l-132 3 -29 -50 c-36 -62
-45 -106 -23 -124 9 -7 16 -21 16 -30 0 -9 7 -25 15 -35 8 -11 15 -26 15 -33
0 -15 29 -58 69 -105 18 -21 33 -28 60 -28 20 0 52 -5 71 -10 47 -14 203 -47
332 -70 26 -5 56 -13 67 -19 11 -6 28 -11 38 -11 10 0 107 -29 214 -64 107
-35 209 -67 227 -71 17 -3 34 -11 37 -16 4 -5 21 -9 39 -9 19 0 39 -7 46 -15
7 -8 18 -15 26 -15 7 0 65 -25 128 -55 63 -30 117 -55 120 -55 3 0 15 -8 27
-18 48 -40 69 -62 69 -72 0 -5 8 -10 18 -10 9 0 39 -16 65 -36 48 -35 48 -36
42 -77 -4 -23 -11 -44 -16 -47 -5 -3 -14 -39 -21 -80 -7 -41 -15 -77 -19 -80
-3 -3 -9 -15 -13 -26 -9 -29 14 -33 248 -41 l191 -6 -3 174 -4 174 45 65 c76
112 135 162 207 175 61 11 206 -39 284 -98 56 -43 207 -77 346 -77 105 0 161
-10 198 -33 13 -9 12 -49 -3 -169 -6 -41 -4 -58 4 -58 18 0 13 -71 -6 -86 -10
-7 -15 -16 -10 -20 10 -10 333 29 582 71 1310 221 2563 751 3625 1534 699 515
1346 1162 1861 1861 1514 2054 2025 4717 1384 7215 -382 1491 -1144 2824
-2245 3925 -830 830 -1786 1464 -2855 1895 -934 376 -1882 576 -2913 615 -281
10 -339 10 -637 -1z m-2324 -2701 c8 -7 28 -33 43 -57 15 -24 36 -46 46 -48
12 -3 35 -43 67 -114 42 -95 52 -110 76 -116 18 -3 29 -14 33 -29 3 -13 10
-24 14 -24 33 0 38 -187 5 -193 -11 -2 -21 43 -30 135 -5 47 -10 58 -28 64
-12 3 -39 25 -60 48 -31 34 -39 38 -47 26 -5 -8 -10 -25 -10 -37 0 -26 -25
-53 -50 -53 -41 0 -119 170 -136 299 -11 88 29 139 77 99z m98 -490 c1 -5 -3
-8 -9 -8 -5 0 -10 12 -9 28 0 24 1 25 9 7 5 -11 9 -23 9 -27z m167 -139 c3 -6
2 -15 -4 -21 -7 -7 -14 -3 -21 11 -10 17 -9 21 3 21 8 0 18 -5 22 -11z m-58
-75 c42 -21 72 -65 72 -106 0 -26 -9 -43 -34 -69 -19 -19 -39 -52 -45 -73 -9
-36 -7 -47 24 -120 38 -86 41 -106 22 -149 l-12 -29 -22 24 c-27 29 -63 164
-62 232 1 38 -7 69 -30 118 -65 139 -21 226 87 172z m180 -52 c2 -7 -3 -12
-12 -12 -9 0 -16 7 -16 16 0 17 22 14 28 -4z m8 -639 c3 -16 12 -47 20 -71 15
-45 18 -75 8 -84 -7 -7 -67 14 -76 27 -11 14 -10 83 1 90 5 3 12 19 16 35 8
37 23 39 31 3z m3874 -100 c0 -19 -28 -48 -73 -77 -27 -17 -30 -17 -48 0 -49
44 -4 89 94 93 20 1 27 -4 27 -16z m-420 -363 c0 -5 -5 -10 -11 -10 -5 0 -7 5
-4 10 3 6 8 10 11 10 2 0 4 -4 4 -10z m-280 -258 c3 -2 -1 -7 -8 -9 -25 -9 0
-23 43 -23 30 0 45 -5 49 -16 3 -8 10 -12 16 -9 6 3 24 -7 41 -24 17 -17 34
-31 39 -31 21 0 59 -107 64 -180 2 -41 8 -83 11 -93 4 -9 3 -23 -3 -30 -5 -6
-15 -32 -22 -56 -6 -24 -18 -50 -26 -58 -8 -8 -14 -24 -14 -36 0 -12 -18 -42
-41 -67 -45 -49 -51 -80 -28 -144 15 -42 4 -98 -37 -182 -23 -48 -28 -52 -70
-58 -38 -5 -50 -2 -83 22 -21 15 -49 42 -62 61 -32 47 -76 87 -123 114 -22 12
-46 38 -57 59 -11 21 -40 59 -65 86 -42 43 -45 50 -38 82 12 56 8 114 -11 166
-10 27 -22 53 -26 58 -4 5 3 20 16 34 13 14 26 36 30 49 8 35 81 138 110 157
13 9 49 24 80 33 30 9 55 20 55 24 0 4 15 10 33 14 56 11 126 55 87 55 -5 0
-10 5 -10 11 0 10 38 3 50 -9z m335 -473 c34 -64 1 -99 -54 -58 -53 39 -47 89
10 89 22 0 32 -7 44 -31z m143 -41 c-7 -19 -38 -22 -38 -4 0 10 9 16 21 16 12
0 19 -5 17 -12z m-415 -641 c11 -12 17 -33 15 -51 -4 -38 -54 -97 -79 -93 -37
6 -109 94 -109 133 0 45 137 54 173 11z m-2303 -296 c0 -6 -4 -13 -10 -16 -5
-3 -10 1 -10 9 0 9 5 16 10 16 6 0 10 -4 10 -9z m40 -64 c14 -17 32 -44 39
-59 8 -15 23 -37 34 -48 10 -12 17 -24 14 -27 -9 -9 -51 39 -70 80 -10 21 -27
43 -38 50 -18 11 -27 37 -11 37 4 0 18 -15 32 -33z m120 -167 c0 -5 -4 -10 -9
-10 -6 0 -13 5 -16 10 -3 6 1 10 9 10 9 0 16 -4 16 -10z m41 -83 c-1 -12 -15
-9 -19 4 -3 6 1 10 8 8 6 -3 11 -8 11 -12z m214 -227 c3 -5 1 -10 -4 -10 -6 0
-11 5 -11 10 0 6 2 10 4 10 3 0 8 -4 11 -10z m3951 -15 c12 -8 27 -28 34 -44
11 -28 83 -78 170 -117 l25 -12 -33 -12 c-43 -16 -36 -31 24 -53 27 -10 51
-22 54 -26 3 -5 15 -11 27 -15 12 -4 26 -20 32 -36 5 -17 9 -30 8 -31 -12 -5
-167 -2 -167 4 0 11 -38 9 -45 -3 -10 -16 -22 -11 -28 11 -3 12 -10 18 -16 15
-10 -6 -49 9 -61 23 -3 3 -20 14 -39 24 -25 13 -37 15 -47 6 -20 -16 -40 3
-69 68 -31 67 -35 153 -7 153 10 0 28 9 40 20 12 11 28 20 36 20 8 0 18 5 21
10 8 14 17 13 41 -5z m-6416 -45 c20 -20 24 -35 20 -77 -2 -30 11 -29 39 3 12
14 25 24 27 21 3 -3 -2 -30 -11 -60 -13 -47 -24 -61 -73 -99 -69 -54 -137 -98
-153 -98 -20 0 -129 -52 -129 -62 0 -5 -4 -6 -10 -3 -6 4 -7 -1 -3 -11 5 -14
3 -16 -12 -11 -26 10 -87 -14 -80 -31 4 -11 -1 -13 -25 -8 -22 4 -32 1 -36 -9
-4 -8 -15 -15 -25 -15 -10 0 -19 -7 -19 -15 0 -8 -7 -15 -17 -15 -16 0 -53
-36 -102 -100 -26 -35 -61 -76 -114 -134 -56 -61 -189 -229 -199 -252 -6 -12
-32 -37 -58 -55 -29 -19 -72 -67 -111 -121 -35 -49 -69 -94 -75 -101 -14 -17
-114 -169 -114 -174 0 -3 -8 -17 -18 -31 -11 -15 -36 -70 -57 -122 -55 -137
-80 -167 -131 -154 -22 6 -24 10 -23 68 2 71 19 110 58 134 58 35 112 120 163
256 59 156 96 220 177 304 59 60 60 63 55 105 -12 84 8 119 165 292 20 22 65
76 101 120 107 133 193 208 322 284 70 41 96 51 132 51 25 0 47 4 51 10 6 10
243 130 257 130 4 0 17 -9 28 -20z m194 -66 c-14 -47 -17 -50 -23 -24 -4 14
-5 36 -3 49 5 22 6 23 18 7 7 -10 11 -24 8 -32z m-34 -128 c0 -3 -4 -8 -10
-11 -5 -3 -10 -1 -10 4 0 6 5 11 10 11 6 0 10 -2 10 -4z m-24 -53 c-10 -10
-19 5 -10 18 6 11 8 11 12 0 2 -7 1 -15 -2 -18z m6313 -59 c13 -11 31 -27 40
-36 8 -10 22 -18 30 -18 8 0 29 -11 47 -25 18 -14 39 -25 46 -25 7 0 24 -9 38
-20 14 -11 31 -20 38 -20 14 0 17 -20 2 -20 -26 0 -180 84 -188 103 -2 4 -11
7 -20 7 -20 0 -102 79 -102 99 0 11 5 10 23 -6 12 -11 33 -29 46 -39z m-6423
-51 c-31 -29 -66 -53 -76 -53 -11 0 -20 -4 -20 -8 0 -5 -20 -19 -45 -32 -25
-13 -50 -29 -56 -37 -14 -16 -52 -18 -47 -2 2 6 35 27 73 48 39 20 86 51 105
68 19 18 38 33 42 33 4 0 22 14 40 32 22 22 33 27 36 18 3 -8 -21 -38 -52 -67z
m6722 -125 c9 -9 17 -8 37 2 20 10 28 11 37 2 9 -9 9 -12 0 -12 -22 0 -13 -28
17 -53 33 -27 201 -262 209 -291 4 -15 1 -17 -19 -11 -47 15 -76 34 -105 72
-31 40 -124 192 -124 202 0 3 -11 18 -25 33 -14 15 -25 32 -25 38 0 5 -9 10
-21 10 -11 0 -17 5 -14 10 8 13 18 13 33 -2z m-7041 -55 c-2 -5 -34 -60 -71
-124 -37 -65 -73 -122 -81 -129 -8 -7 -15 -18 -15 -26 0 -15 -87 -57 -101 -48
-14 8 -11 20 20 66 15 24 50 77 76 118 60 93 117 150 151 150 14 0 23 -3 21
-7z m6407 -195 c71 0 144 3 163 7 62 11 222 -85 257 -156 28 -56 7 -62 -74
-22 -62 31 -160 39 -168 14 -2 -7 -13 -21 -23 -29 -30 -26 -23 -32 27 -25 35
5 50 2 58 -9 11 -14 33 -26 156 -88 91 -46 235 -192 243 -247 3 -21 11 -62 17
-92 6 -30 9 -62 7 -73 -3 -11 0 -18 10 -18 8 0 17 -9 20 -20 3 -11 9 -20 12
-20 12 0 109 -99 103 -105 -8 -8 35 -45 53 -45 8 0 15 -8 15 -17 0 -10 11 -31
25 -48 14 -16 32 -43 40 -60 8 -16 20 -37 26 -46 7 -9 10 -23 6 -31 -9 -26
-76 1 -125 50 -23 23 -46 42 -51 42 -5 0 -16 15 -25 34 -9 19 -28 44 -41 54
-14 11 -25 23 -25 27 0 12 -42 66 -47 61 -9 -8 61 -115 80 -121 9 -4 17 -12
17 -20 0 -7 7 -20 15 -28 41 -42 129 -160 171 -231 26 -45 72 -111 100 -147
56 -70 134 -229 134 -272 0 -14 7 -32 15 -41 17 -16 21 -66 5 -66 -10 0 -14
15 -11 34 4 18 -30 76 -44 76 -10 0 -12 -9 -8 -35 3 -19 2 -35 -1 -35 -15 0
-97 62 -109 82 -7 11 -33 30 -59 44 -26 13 -50 29 -53 35 -4 6 -37 24 -74 41
-106 47 -136 63 -139 71 -2 4 -12 7 -22 7 -26 0 -93 41 -83 50 14 14 137 77
173 89 19 6 49 23 65 36 l30 25 -25 47 c-14 27 -54 77 -90 113 -79 80 -110
119 -162 208 -46 76 -92 129 -122 138 -34 11 -208 127 -250 167 -21 20 -42 37
-45 37 -18 0 -91 91 -106 132 -13 36 -23 47 -43 51 -15 3 -52 14 -82 26 -30
11 -62 21 -71 21 -29 0 -94 85 -107 140 -22 94 -17 119 30 163 32 30 46 37 62
31 12 -4 79 -7 150 -6z m-6016 -59 c9 -17 27 -44 40 -59 12 -15 22 -31 22 -34
0 -3 -18 -6 -40 -6 -23 0 -55 -7 -73 -16 -39 -20 -146 -84 -167 -99 -8 -6 -35
-18 -60 -25 -161 -51 -351 -166 -421 -257 -24 -31 -56 -70 -72 -86 -15 -16
-32 -37 -37 -48 -6 -10 -17 -19 -25 -19 -7 0 -16 -6 -18 -12 -3 -7 -3 2 0 20
3 20 1 32 -6 32 -16 0 -14 19 4 37 37 37 -36 42 -80 5 -38 -32 -60 -39 -130
-40 -77 -1 -85 4 -85 59 0 99 79 219 154 233 19 4 153 66 298 138 265 131 362
174 421 183 18 3 50 9 72 14 22 5 73 9 113 10 72 1 73 1 90 -30z m367 -40 c5
-24 2 -36 -15 -55 -13 -13 -26 -21 -30 -19 -12 8 -134 -17 -156 -32 -19 -12
-24 -11 -45 6 l-24 19 23 20 c14 12 45 22 83 26 39 5 67 14 80 27 10 10 23 19
28 19 5 0 14 7 21 15 16 20 27 12 35 -26z m6703 -41 c18 -18 15 -28 -8 -28
-13 0 -20 7 -20 20 0 23 10 26 28 8z m-8416 -88 c-6 -42 -100 -223 -137 -263
-28 -30 -36 -35 -41 -22 -4 8 -11 14 -18 13 -6 -1 -22 4 -35 11 -21 11 -23 18
-18 55 3 22 14 59 23 81 10 22 17 43 16 47 -3 11 50 64 78 79 26 13 94 28 120
25 10 -1 14 -10 12 -26z m1358 -76 c0 -23 -58 -74 -85 -74 -13 0 -30 -3 -39
-6 -13 -5 -16 2 -16 35 0 23 5 41 10 41 6 0 14 8 17 18 4 9 18 28 32 41 l25
24 28 -32 c15 -17 28 -38 28 -47z m5842 -37 c42 -26 208 -233 208 -261 0 -10
7 -24 15 -30 8 -6 19 -35 25 -65 9 -49 8 -58 -11 -85 -35 -52 -66 -69 -123
-68 -60 0 -96 10 -97 26 0 6 -4 2 -9 -9 -5 -11 -9 -14 -9 -7 -2 24 -21 11 -21
-14 0 -21 25 -52 110 -135 60 -60 135 -141 166 -180 47 -58 61 -69 78 -64 63
20 70 18 105 -29 19 -25 42 -46 50 -46 13 1 13 2 -2 11 -9 6 -15 14 -12 19 3
4 -2 11 -11 14 -9 3 -14 16 -13 28 1 13 -1 31 -5 40 -5 10 -6 23 -4 30 7 19
56 17 61 -2 2 -9 23 -22 46 -30 23 -7 46 -19 52 -27 13 -15 35 -17 43 -5 6 11
-39 80 -88 132 -33 36 -38 46 -33 76 4 23 1 36 -8 41 -7 5 -17 22 -21 38 l-7
30 29 -31 c16 -17 58 -64 94 -104 36 -41 77 -87 93 -104 31 -34 33 -44 13 -52
-27 -10 -26 -34 4 -63 31 -29 36 -57 24 -120 -6 -27 -10 -30 -36 -27 -16 1
-34 8 -40 14 -7 7 -22 12 -34 12 -12 0 -27 7 -34 15 -7 8 -19 15 -28 15 -8 0
-24 8 -35 18 -16 14 -41 17 -147 18 l-128 2 -97 103 c-53 57 -101 109 -107
114 -144 135 -175 174 -241 306 -125 252 -145 343 -90 411 15 18 32 36 38 40
12 9 26 -12 18 -27 -4 -5 2 -3 13 7 58 49 148 61 206 25z m2620 -38 c9 -5 27
-9 40 -9 13 0 35 -12 49 -28 26 -27 41 -36 114 -68 49 -22 55 -30 55 -75 0
-44 -100 -217 -158 -272 -20 -19 -77 -74 -127 -122 -63 -61 -91 -82 -93 -71
-2 9 -12 16 -23 16 -10 0 -19 6 -19 13 0 7 -14 24 -31 36 -22 16 -28 26 -19
31 8 5 3 10 -14 14 -14 3 -26 10 -26 15 0 13 -36 51 -49 51 -6 0 -11 3 -11 8
0 4 -12 20 -27 36 -19 23 -34 30 -60 29 -26 -1 -38 5 -50 23 -9 14 -22 23 -29
20 -8 -3 -14 1 -14 8 0 8 -11 21 -25 30 -13 9 -37 28 -53 44 -16 15 -42 37
-59 50 -40 30 -71 107 -54 134 6 10 9 29 5 42 -7 29 18 41 49 24 12 -7 24 -12
27 -11 3 1 35 4 70 8 36 4 83 11 105 17 22 5 81 12 130 15 50 3 92 7 95 10 8
7 183 -8 202 -18z m-8727 -36 c14 -21 25 -47 25 -59 0 -31 -45 -107 -88 -147
-20 -20 -56 -53 -78 -74 -23 -21 -49 -54 -59 -73 -20 -38 -36 -61 -193 -264
-104 -134 -180 -221 -224 -255 -22 -17 -75 -30 -163 -40 -38 -5 -78 -12 -87
-16 -38 -16 -53 167 -19 240 10 22 47 67 81 100 35 33 94 96 133 140 38 44
115 129 171 189 56 60 103 112 106 115 20 29 173 128 232 152 102 40 131 38
163 -8z m8040 -21 c0 -18 -20 -15 -23 4 -3 10 1 15 10 12 7 -3 13 -10 13 -16z
m-7555 -72 c0 -5 -14 -23 -32 -40 -23 -22 -34 -27 -42 -19 -8 8 -1 19 24 40
36 30 50 36 50 19z m-80 -73 c0 -9 -38 -47 -48 -47 -5 0 -12 -9 -15 -20 -6
-22 -27 -28 -27 -7 0 18 59 77 76 77 8 0 14 -2 14 -3z m-100 -96 c0 -5 -8 -17
-17 -27 -20 -20 -32 -1 -13 21 14 17 30 20 30 6z m-60 -61 c0 -5 -5 -10 -11
-10 -5 0 -7 5 -4 10 3 6 8 10 11 10 2 0 4 -4 4 -10z m-1178 -44 c16 -23 7 -83
-19 -133 -14 -29 -30 -53 -34 -53 -10 0 -73 -117 -89 -165 -14 -45 -41 -107
-50 -115 -3 -3 -6 -17 -8 -32 -3 -23 1 -28 25 -33 50 -12 53 -14 53 -47 0 -18
-21 -96 -46 -173 -46 -139 -47 -140 -110 -200 -35 -33 -64 -66 -64 -72 0 -16
-29 -24 -100 -28 -53 -3 -62 0 -79 21 -10 13 -21 46 -25 75 -4 28 -18 81 -32
117 l-25 66 20 66 c11 36 33 85 49 110 27 43 128 138 183 172 14 9 45 47 69
85 25 37 48 71 52 74 15 10 48 83 48 105 0 12 7 24 14 27 8 3 18 23 22 44 4
21 17 54 30 75 22 35 25 36 66 31 24 -3 46 -11 50 -17z m7435 -12 c2 -6 -10
-11 -27 -11 -33 0 -41 13 -12 20 23 6 35 3 39 -9z m83 -100 c0 -8 -4 -12 -10
-9 -5 3 -10 10 -10 16 0 5 5 9 10 9 6 0 10 -7 10 -16z m-9892 -94 c-7 -11 -16
-20 -20 -20 -5 0 -3 9 4 20 7 11 16 20 20 20 5 0 3 -9 -4 -20z m3224 -122 c-7
-7 -12 -8 -12 -2 0 14 12 26 19 19 2 -3 -1 -11 -7 -17z m-2782 -49 c0 -5 -12
-9 -27 -9 -27 1 -27 1 -9 15 19 14 36 12 36 -6z m2722 -41 c-3 -13 -12 -29
-19 -36 -7 -7 -13 -20 -13 -28 0 -8 -10 -14 -22 -14 -21 0 -21 1 5 28 15 15
27 35 27 43 0 17 9 29 21 29 4 0 4 -10 1 -22z m-1505 -30 c-3 -8 -6 -5 -6 6
-1 11 2 17 5 13 3 -3 4 -12 1 -19z m10331 -11 c12 -6 22 -16 22 -22 0 -7 6
-18 13 -24 8 -6 22 -37 32 -68 11 -32 23 -62 27 -67 4 -6 8 -18 8 -28 0 -10
13 -32 28 -49 30 -34 40 -35 229 -38 79 -1 83 -2 120 -36 21 -19 46 -38 56
-41 10 -3 31 -19 48 -35 16 -16 36 -29 44 -29 8 0 15 -4 15 -10 0 -5 5 -10 11
-10 11 0 75 -67 109 -113 13 -18 81 -87 140 -142 33 -31 70 -74 70 -82 0 -12
80 -117 96 -126 8 -4 14 -17 14 -27 0 -17 15 -25 42 -22 3 1 13 -16 22 -38 13
-34 33 -50 59 -50 4 1 15 -6 23 -15 9 -8 23 -15 32 -15 10 0 30 -16 46 -35 16
-19 33 -35 38 -35 8 0 44 -29 82 -65 12 -12 29 -24 39 -28 9 -3 22 -17 28 -29
5 -13 17 -36 25 -51 9 -16 13 -34 11 -41 -8 -20 -128 -44 -252 -52 -95 -5
-116 -10 -165 -36 -154 -82 -210 -108 -268 -123 -24 -6 -43 -14 -42 -18 0 -4
0 -14 0 -22 0 -8 5 -15 12 -15 17 0 48 -31 48 -47 0 -8 14 -34 30 -58 17 -24
30 -51 30 -60 0 -8 11 -20 24 -25 37 -14 70 -94 44 -103 -7 -2 1 -2 17 0 l30
4 -27 -25 c-33 -29 -35 -38 -10 -34 11 2 26 -3 36 -11 9 -7 39 -15 66 -16 31
-1 70 -13 101 -29 28 -14 57 -26 65 -26 8 0 14 -4 14 -8 0 -5 18 -15 40 -22
22 -7 40 -17 40 -22 0 -4 9 -8 19 -8 26 0 112 -45 132 -69 8 -10 25 -22 38
-26 28 -9 131 -85 131 -96 0 -5 11 -9 25 -9 14 0 28 -7 31 -15 4 -8 15 -15 25
-15 10 0 19 -6 19 -13 0 -7 15 -18 33 -26 l32 -13 -29 -10 c-21 -8 -39 -8 -60
0 -17 6 -47 14 -66 17 -55 12 -462 183 -483 204 -6 6 -17 11 -25 11 -8 0 -36
11 -64 25 -27 14 -55 25 -62 25 -23 0 -136 79 -136 95 0 9 -8 19 -17 22 -10 4
-21 11 -24 16 -4 5 -27 13 -53 18 -72 13 -301 136 -418 224 -34 26 -83 58
-108 71 -50 28 -79 45 -195 118 -44 28 -87 56 -96 61 -104 65 -119 84 -119
158 -1 57 -6 101 -40 306 -17 104 -3 317 23 349 13 16 25 222 14 229 -5 3 -28
-14 -52 -37 -73 -71 -80 -57 -89 180 -4 104 -2 134 13 180 34 102 81 160 130
160 11 0 22 4 26 10 5 9 26 3 83 -23z m-1773 -67 c0 -13 -6 -25 -12 -27 -9 -3
-13 6 -13 27 0 21 4 30 13 28 6 -3 12 -15 12 -28z m-7216 -50 c20 0 61 -40 61
-59 0 -9 7 -29 15 -44 13 -26 13 -31 -3 -53 -10 -14 -24 -22 -34 -20 -11 3
-18 -2 -18 -11 0 -8 -4 -12 -9 -9 -5 4 -5 22 0 43 12 53 11 61 -9 81 -17 17
-62 88 -62 98 0 3 10 -2 22 -10 12 -9 29 -16 37 -16z m6753 -56 c12 -14 30
-30 42 -35 11 -5 28 -13 36 -18 8 -4 33 -16 55 -26 22 -9 48 -21 57 -26 10 -5
29 -9 44 -9 35 0 84 -50 84 -87 0 -30 -39 -63 -77 -63 -10 0 -27 -7 -37 -15
-11 -8 -31 -15 -46 -15 -32 0 -127 35 -150 55 -9 8 -24 15 -33 15 -9 0 -17 5
-17 10 0 6 -18 18 -40 27 -41 18 -48 27 -30 38 16 10 12 25 -6 25 -14 0 -15 7
-10 38 3 20 6 49 6 65 0 20 5 27 19 27 11 0 23 5 26 10 12 19 57 10 77 -16z
m288 -3 c0 -5 8 -12 18 -14 9 -3 -2 -5 -26 -6 -37 -1 -41 1 -30 14 15 16 38
20 38 6z m-6895 -51 c-3 -5 -10 -10 -16 -10 -5 0 -9 5 -9 10 0 6 7 10 16 10 8
0 12 -4 9 -10z m-834 -223 c-13 -13 -15 1 -4 30 7 17 8 17 11 -1 2 -10 -1 -23
-7 -29z m7474 -12 c38 -37 42 -45 22 -45 -17 0 -79 64 -71 73 11 10 12 10 49
-28z m75 -55 c0 -5 -7 -10 -15 -10 -8 0 -15 5 -15 10 0 6 7 10 15 10 8 0 15
-4 15 -10z m50 -20 c0 -5 -9 -10 -21 -10 -11 0 -17 5 -14 10 3 6 13 10 21 10
8 0 14 -4 14 -10z m128 -64 c31 -13 80 -31 109 -41 29 -11 62 -28 73 -39 45
-45 79 -85 120 -142 24 -32 47 -60 52 -62 4 -2 8 -8 8 -14 0 -6 15 -29 33 -52
31 -39 47 -68 70 -126 5 -14 13 -32 18 -42 13 -25 22 -114 15 -142 -4 -17 -13
-26 -26 -26 -22 0 -27 -25 -7 -33 7 -2 21 -21 32 -41 17 -32 18 -38 5 -46 -14
-10 -39 -8 -74 6 -11 4 -16 0 -16 -14 0 -12 4 -23 9 -26 18 -11 34 -94 23
-124 -8 -24 -5 -44 15 -103 14 -41 33 -112 43 -159 21 -100 57 -236 69 -259 4
-9 14 -38 20 -65 7 -28 28 -76 47 -108 19 -33 34 -61 34 -62 0 -5 66 -114 78
-129 5 -7 13 -22 16 -34 6 -20 3 -22 -36 -25 l-43 -3 44 -30 c48 -33 133 -166
117 -183 -7 -6 -73 42 -107 79 -76 80 -200 288 -257 434 -11 28 -34 82 -52
120 -18 39 -49 108 -69 155 l-35 85 -1 195 -1 195 -55 100 c-31 55 -90 163
-133 240 -42 77 -81 147 -86 155 -13 23 -120 354 -120 373 0 21 0 22 68 -7z
m-7823 -76 c3 -5 15 -10 25 -10 23 0 74 -75 72 -104 -1 -26 -20 -36 -69 -36
-33 0 -45 5 -53 21 -7 11 -20 29 -31 40 -12 12 -19 33 -19 59 0 39 1 40 34 40
19 0 38 -4 41 -10z m-183 -130 c9 0 19 -7 22 -16 3 -8 10 -13 15 -9 5 3 11 -5
13 -17 2 -15 13 -24 33 -30 17 -4 39 -21 50 -38 12 -18 29 -30 43 -30 15 0 22
-6 22 -19 0 -45 68 -61 132 -29 21 10 40 18 43 18 14 0 3 -108 -16 -147 -17
-34 -20 -56 -16 -110 2 -38 10 -89 17 -114 23 -86 -5 -146 -62 -131 -37 9
-206 287 -233 382 -6 21 -36 78 -82 155 -27 46 -43 89 -43 120 0 40 9 49 30
30 9 -8 24 -15 32 -15z m-505 -782 c-3 -8 -6 -5 -6 6 -1 11 2 17 5 13 3 -3 4
-12 1 -19z m9582 -1292 l25 -14 -22 -13 c-12 -8 -22 -18 -22 -23 0 -14 -33
-35 -55 -36 -11 0 -37 -11 -57 -25 l-37 -25 21 48 c45 100 83 123 147 88z
m-487 -288 c-15 -15 -26 -4 -18 18 5 13 9 15 18 6 9 -9 9 -15 0 -24z m2333
-939 c4 -16 11 -31 16 -34 12 -8 12 -25 -1 -25 -5 0 -19 20 -31 45 -12 25 -25
48 -30 51 -5 3 -9 12 -9 21 0 26 48 -24 55 -58z m-12558 -106 c-3 -10 -5 -2
-5 17 0 19 2 27 5 18 2 -10 2 -26 0 -35z m12600 -15 c-3 -8 -6 -5 -6 6 -1 11
2 17 5 13 3 -3 4 -12 1 -19z m-9172 -296 c-3 -3 -11 0 -18 7 -9 10 -8 11 6 5
10 -3 15 -9 12 -12z"/>
<path d="M11688 10253 c7 -3 16 -2 19 1 4 3 -2 6 -13 5 -11 0 -14 -3 -6 -6z"/>
<path d="M11230 9391 c0 -13 32 -36 91 -64 68 -33 86 -34 94 -6 10 31 -12 47
-77 53 -32 4 -69 11 -83 16 -14 5 -25 6 -25 1z"/>
<path d="M11431 9274 c0 -11 3 -14 6 -6 3 7 2 16 -1 19 -3 4 -6 -2 -5 -13z"/>
<path d="M11650 9050 c0 -5 4 -10 9 -10 6 0 13 5 16 10 3 6 -1 10 -9 10 -9 0
-16 -4 -16 -10z"/>
<path d="M11698 9022 c13 -4 22 -11 20 -16 -2 -5 29 -26 67 -47 39 -21 75 -42
82 -48 7 -6 16 -11 20 -11 4 0 23 -15 42 -32 22 -22 32 -27 28 -15 -4 10 -7
25 -7 33 0 7 -6 11 -14 8 -8 -3 -19 3 -26 15 -6 12 -18 21 -26 21 -8 0 -13 4
-10 9 4 5 -7 12 -24 16 -16 4 -30 10 -30 15 0 4 -15 13 -32 21 -18 7 -35 16
-38 21 -4 4 -22 10 -40 13 -24 3 -27 2 -12 -3z"/>
<path d="M11970 8815 c0 -9 6 -12 15 -9 8 4 15 7 15 9 0 2 -7 5 -15 9 -9 3
-15 0 -15 -9z"/>
<path d="M14260 6831 c0 -17 5 -33 10 -36 6 -3 10 -15 10 -26 0 -31 48 -13 93
34 20 22 37 42 37 44 0 8 -42 2 -60 -9 -16 -10 -25 -9 -49 5 -39 23 -41 22
-41 -12z"/>
<path d="M11617 8070 c-48 -9 -56 -17 -24 -25 34 -9 80 -3 84 11 5 16 -16 21
-60 14z"/>
<path d="M11490 8057 c0 -7 9 -18 20 -24 16 -11 18 -10 14 1 -4 11 1 13 18 10
22 -5 22 -5 4 10 -24 19 -56 21 -56 3z"/>
<path d="M12140 7385 c-13 -16 -7 -45 10 -45 5 0 10 14 10 30 0 34 -3 36 -20
15z"/>
<path d="M12142 7308 c-6 -6 -12 -19 -12 -27 0 -13 2 -13 16 1 9 9 15 21 13
27 -3 9 -8 8 -17 -1z"/>
<path d="M8200 12893 l-35 -15 30 -25 30 -25 -30 7 c-16 4 -37 13 -46 21 -8 8
-23 14 -32 14 -13 0 -16 -6 -11 -25 4 -18 1 -27 -11 -31 -14 -6 -12 -10 14
-26 27 -17 36 -18 93 -7 35 6 71 16 81 21 25 13 21 59 -7 86 -27 25 -29 26
-76 5z"/>
<path d="M7080 12844 c0 -10 33 -33 48 -34 6 0 12 5 12 10 0 6 -9 10 -20 10
-11 0 -20 5 -20 10 0 6 -4 10 -10 10 -5 0 -10 -3 -10 -6z"/>
<path d="M7760 12745 c0 -9 5 -15 11 -13 6 2 11 8 11 13 0 5 -5 11 -11 13 -6
2 -11 -4 -11 -13z"/>
<path d="M7326 12701 c-7 -11 9 -18 68 -26 31 -5 46 -4 46 4 0 6 -15 11 -34
11 -19 0 -38 5 -41 10 -8 12 -32 13 -39 1z"/>
<path d="M7807 12652 c-15 -2 -25 -8 -22 -13 8 -12 42 -11 50 2 9 14 5 15 -28
11z"/>
<path d="M7516 12622 c-2 -4 12 -6 32 -4 62 6 69 10 20 11 -26 0 -49 -3 -52
-7z"/>
<path d="M7754 12615 c25 -19 37 -19 30 0 -4 8 -16 15 -28 15 -21 -1 -21 -1
-2 -15z"/>
<path d="M7970 11980 c-28 -28 -36 -68 -18 -99 14 -24 14 -31 -4 -81 -10 -30
-22 -63 -25 -73 -4 -13 6 -31 33 -58 43 -44 63 -49 71 -18 5 17 11 19 42 15
52 -9 73 8 35 27 -16 8 -40 18 -54 22 -32 10 -49 33 -50 66 0 36 19 90 41 115
25 27 24 40 -6 60 -14 9 -25 23 -25 30 0 20 -17 17 -40 -6z"/>
<path d="M6920 11976 c0 -22 41 -60 80 -76 19 -7 46 -22 59 -32 13 -10 33 -18
44 -18 30 0 86 -38 102 -70 19 -37 19 -50 -2 -65 -15 -11 -15 -18 -4 -71 44
-196 47 -204 90 -204 26 0 91 49 91 69 0 5 -9 30 -19 55 -16 35 -18 52 -10 78
13 48 11 85 -6 92 -8 3 -15 12 -15 20 0 7 -7 16 -15 20 -8 3 -15 14 -15 25 0
23 -16 36 -25 21 -9 -14 -35 -12 -35 3 -1 6 -14 21 -30 32 -16 11 -50 38 -75
59 l-46 39 -20 -22 -20 -22 -37 29 c-36 29 -75 52 -86 52 -3 0 -6 -7 -6 -14z"/>
<path d="M8341 11654 c-24 -12 -113 -12 -163 1 -66 17 -9 -47 64 -73 31 -11
50 -24 54 -37 18 -66 46 -82 79 -45 15 16 17 31 12 86 -2 36 -9 69 -13 73 -5
5 -20 2 -33 -5z"/>
<path d="M8036 11608 c9 -31 5 -29 74 -37 34 -4 65 -12 68 -17 15 -22 84 -56
93 -47 7 7 -13 24 -61 52 -40 22 -76 41 -82 41 -6 0 -8 7 -4 15 4 12 -4 15
-45 15 -48 0 -50 -1 -43 -22z"/>
<path d="M7218 11375 c-8 -8 3 -55 13 -55 5 0 9 14 9 30 0 28 -9 38 -22 25z"/>
<path d="M7662 11349 c-26 -10 -21 -29 8 -29 22 0 31 12 22 27 -5 7 -15 7 -30
2z"/>
<path d="M7710 11337 c0 -12 9 -30 20 -40 11 -9 23 -30 26 -45 3 -16 15 -34
27 -42 20 -12 21 -12 9 3 -11 13 -10 17 5 26 17 9 17 10 1 16 -10 4 -18 12
-18 17 0 13 -53 88 -62 88 -5 0 -8 -10 -8 -23z"/>
<path d="M7220 11271 c0 -22 5 -43 10 -46 6 -4 10 12 10 39 0 25 -4 46 -10 46
-5 0 -10 -18 -10 -39z"/>
<path d="M7639 11284 c-11 -14 -9 -19 11 -35 27 -20 55 -24 65 -9 7 12 -19 53
-28 43 -4 -3 -7 -1 -7 5 0 17 -25 15 -41 -4z"/>
<path d="M7650 11120 c-8 -5 -12 -12 -9 -15 8 -8 39 5 39 16 0 11 -11 11 -30
-1z"/>
<path d="M7393 11106 c-32 -15 -28 -33 8 -38 73 -11 108 20 48 41 -18 6 -32
10 -33 10 -1 -1 -11 -6 -23 -13z"/>
<path d="M7700 11095 c0 -9 9 -15 24 -15 14 0 28 -4 31 -10 7 -12 45 -14 45
-2 -1 9 -66 42 -85 42 -8 0 -15 -7 -15 -15z"/>
<path d="M8095 11100 c3 -5 14 -10 23 -10 15 0 15 2 2 10 -20 13 -33 13 -25 0z"/>
<path d="M7646 11046 c-8 -45 9 -68 44 -59 15 4 17 9 10 23 -6 10 -10 30 -10
43 0 16 -7 26 -19 30 -16 4 -20 -3 -25 -37z"/>
<path d="M8185 11070 c-4 -6 7 -10 27 -9 27 0 30 2 13 9 -27 12 -33 12 -40 0z"/>
<path d="M7811 11041 c-1 -10 -10 -11 -36 -7 -19 4 -35 3 -35 -2 0 -14 125
-132 140 -132 17 0 19 15 4 32 -12 13 -14 21 -6 30 14 18 -9 48 -36 48 -13 0
-22 8 -25 23 -2 12 -5 16 -6 8z"/>
<path d="M7350 11013 c0 -9 14 -31 30 -50 17 -18 30 -39 30 -46 0 -7 12 -23
25 -36 14 -13 25 -29 25 -36 0 -13 65 -75 79 -75 4 0 16 -19 26 -42 10 -24 24
-50 31 -58 6 -8 17 -32 23 -52 7 -22 26 -47 44 -60 18 -12 34 -26 35 -30 5
-11 22 -10 22 0 0 5 -14 25 -32 45 -24 26 -32 46 -34 77 -2 40 -28 109 -46
121 -5 3 -10 13 -12 22 -3 19 -45 67 -59 67 -17 0 -107 94 -107 111 0 10 -18
26 -40 37 -33 16 -40 17 -40 5z"/>
<path d="M8090 10850 c0 -13 28 -25 38 -16 3 4 0 11 -8 16 -20 13 -30 12 -30
0z"/>
<path d="M7646 10385 c4 -8 8 -15 10 -15 2 0 4 7 4 15 0 8 -4 15 -10 15 -5 0
-7 -7 -4 -15z"/>
<path d="M8221 9946 c9 -10 173 -27 200 -21 59 13 15 25 -93 25 -61 0 -109 -2
-107 -4z"/>
<path d="M8006 9879 c-3 -8 -7 -39 -10 -69 -3 -30 -8 -73 -11 -95 -5 -30 1
-59 20 -115 15 -41 32 -97 37 -123 15 -67 27 -71 167 -58 209 21 197 17 194
59 -1 20 -3 60 -4 87 -1 28 -6 56 -12 63 -5 6 -31 12 -58 12 -51 0 -69 11 -94
60 -11 21 -25 31 -49 36 -36 6 -88 49 -144 118 -22 28 -33 35 -36 25z"/>
<path d="M7766 9584 c-3 -8 -10 -13 -14 -10 -5 3 -19 -8 -31 -24 -12 -17 -28
-30 -36 -30 -8 0 -15 -5 -15 -10 0 -6 -16 -18 -35 -27 -33 -16 -46 -37 -27
-45 4 -1 20 -25 36 -51 l28 -49 56 5 c68 6 150 21 175 32 30 13 18 47 -53 150
-49 72 -73 89 -84 59z"/>
<path d="M8152 9281 c-13 -8 -8 -152 7 -211 8 -33 66 -139 93 -170 12 -14 14
-17 17 -40 0 -5 8 -10 17 -10 12 0 14 5 8 18 -4 9 -8 31 -8 47 -1 17 -4 35 -8
41 -13 19 3 23 68 17 60 -6 64 -5 64 15 0 11 -5 22 -12 24 -8 3 -13 25 -13 55
0 28 -6 57 -12 64 -15 18 -91 56 -125 64 -20 4 -28 12 -28 28 -1 38 -42 74
-68 58z"/>
<path d="M7890 9248 c-56 -27 -58 -32 -49 -80 4 -24 8 -61 9 -83 0 -23 5 -46
12 -53 8 -8 8 -15 0 -25 -9 -11 -8 -18 7 -31 10 -9 21 -35 25 -56 3 -22 11
-40 16 -40 6 0 10 -13 10 -30 0 -37 9 -38 41 -1 26 30 54 104 50 132 -1 9 5
19 14 22 11 5 15 20 15 56 0 54 -33 173 -53 188 -22 18 -62 19 -97 1z"/>
<path d="M8075 8768 c-16 -6 -55 -28 -85 -48 -30 -21 -65 -40 -77 -44 -13 -4
-23 -12 -23 -18 0 -5 -9 -22 -20 -36 -58 -76 -91 -124 -87 -128 2 -2 36 27 75
66 40 38 76 70 81 70 5 0 11 6 14 13 2 7 46 36 96 66 50 29 91 57 91 62 0 12
-27 10 -65 -3z"/>
<path d="M8521 8695 c24 -19 58 -39 74 -44 17 -4 29 -13 28 -18 -1 -6 11 -10
27 -9 17 1 28 6 26 11 -1 6 -10 9 -20 7 -10 -2 -16 4 -16 18 0 11 -5 20 -11
20 -7 0 -22 11 -35 25 -18 20 -33 25 -70 25 l-47 0 44 -35z"/>
<path d="M8046 8581 c-13 -5 -16 -10 -8 -15 11 -6 52 9 52 19 0 7 -22 5 -44
-4z"/>
<path d="M7970 8571 c0 -6 5 -13 10 -16 21 -13 -2 -24 -41 -21 -31 3 -45 -1
-60 -17 -10 -11 -19 -24 -19 -29 0 -4 -7 -8 -15 -8 -22 0 -18 -15 8 -33 12 -8
19 -18 15 -23 -5 -4 -16 0 -26 9 -24 22 -27 22 -46 -8 -11 -17 -12 -23 -3 -19
8 3 13 -3 13 -15 0 -11 -5 -17 -14 -14 -16 7 -52 -30 -52 -52 0 -8 -5 -15 -11
-15 -5 0 -7 -4 -4 -10 7 -11 -28 -14 -39 -3 -9 9 -78 33 -97 33 -9 0 -36 10
-60 23 -43 23 -90 35 -218 57 -74 13 -186 5 -246 -18 -75 -28 -107 -78 -67
-102 15 -9 13 -13 -21 -43 -36 -31 -37 -35 -26 -62 10 -28 12 -28 20 -10 7 18
8 17 6 -5 -1 -14 -6 -31 -10 -37 -10 -16 0 -77 21 -125 16 -39 34 -51 29 -20
-1 9 2 17 8 17 5 0 8 -4 7 -10 -2 -5 -6 -26 -9 -45 -3 -24 -2 -31 5 -21 13 19
31 5 25 -19 -3 -11 0 -20 6 -20 6 0 11 -9 11 -21 0 -11 5 -17 10 -14 6 3 10
-5 10 -19 0 -18 4 -24 15 -20 8 4 15 2 15 -2 1 -5 10 -20 21 -33 15 -18 23
-21 31 -13 8 8 5 21 -14 49 -38 58 -94 183 -102 227 -10 53 -29 81 -44 64 -5
-7 -12 -22 -15 -33 -4 -18 -5 -18 -6 2 0 13 8 37 19 55 15 24 16 34 7 40 -9 6
-9 10 -1 16 7 4 14 18 15 32 3 17 16 31 39 42 26 13 30 18 14 18 -11 0 -28 6
-38 13 -28 20 -12 49 37 70 50 20 67 21 67 5 1 -8 6 -6 14 5 18 24 31 6 31
-43 0 -33 2 -35 50 -48 28 -8 70 -18 95 -23 128 -26 200 -46 247 -69 23 -11
49 -20 56 -20 8 0 17 -6 20 -14 4 -9 14 -12 25 -9 11 2 23 0 26 -6 4 -6 -1
-11 -11 -11 -26 0 -43 -19 -43 -47 0 -13 -5 -23 -10 -23 -6 0 -10 -16 -8 -35
1 -19 -3 -40 -10 -47 -7 -7 -12 -26 -12 -44 0 -24 -5 -33 -21 -37 -14 -4 -20
-11 -16 -21 3 -8 0 -46 -8 -83 -8 -37 -14 -106 -14 -153 l2 -85 8 65 c5 36 13
74 18 85 9 19 13 38 27 140 4 22 12 47 18 55 7 8 18 35 25 60 7 25 25 71 39
103 32 67 46 71 122 31 50 -26 64 -44 35 -44 -8 0 -15 -4 -15 -10 0 -12 -3
-13 45 4 35 13 42 12 58 -1 23 -21 22 -50 -3 -63 -15 -8 -19 -17 -14 -34 4
-19 -1 -29 -25 -47 -35 -25 -63 -64 -65 -88 -2 -22 -37 -91 -46 -91 -4 0 -19
9 -33 20 -24 19 -26 19 -46 2 -11 -9 -22 -28 -23 -42 -2 -14 -7 -31 -12 -38
-12 -19 2 -28 22 -15 60 42 369 201 411 213 42 11 36 28 -8 24 -22 -1 -45 -6
-52 -9 -6 -4 -21 -2 -33 5 -17 9 -22 18 -18 36 2 13 8 27 13 30 5 3 9 14 9 25
0 25 17 24 65 -6 22 -13 46 -25 54 -25 8 0 22 -6 30 -14 20 -18 71 -31 71 -19
0 5 -17 15 -37 22 -21 8 -40 18 -43 22 -13 20 -366 194 -575 284 -16 7 -59 25
-95 40 -108 47 -122 74 -28 56 176 -35 281 -71 508 -173 85 -39 163 -71 173
-71 9 -1 17 -4 17 -8 0 -8 70 -42 75 -37 2 1 -30 23 -71 48 -41 25 -74 51 -74
57 0 7 -7 13 -15 13 -24 0 -20 62 5 78 24 15 19 54 -11 88 -11 11 -19 26 -19
33 0 8 -8 6 -24 -6 -31 -23 -50 -87 -30 -104 18 -15 18 -29 0 -29 -8 0 -16 -5
-18 -12 -3 -8 -18 -5 -49 10 -25 12 -55 22 -66 22 -11 0 -26 7 -33 15 -7 8
-27 16 -44 16 l-31 2 30 4 c16 3 35 12 43 21 73 96 158 199 175 213 20 15 20
19 8 43 -14 25 -41 36 -41 17z m-175 -231 c-3 -5 -13 -10 -21 -10 -8 0 -14 5
-14 10 0 6 9 10 21 10 11 0 17 -4 14 -10z m232 -86 c-3 -3 -12 -4 -19 -1 -8 3
-5 6 6 6 11 1 17 -2 13 -5z"/>
<path d="M7746 8458 c-18 -25 -20 -38 -8 -38 4 0 16 14 25 30 21 35 6 41 -17
8z"/>
<path d="M9018 8255 c17 -36 32 -45 32 -22 0 14 -33 57 -43 57 -4 0 1 -16 11
-35z"/>
<path d="M9057 8203 c-4 -6 0 -19 8 -29 11 -15 14 -16 15 -4 0 21 -16 44 -23
33z"/>
<path d="M9086 8144 c-6 -20 3 -51 24 -84 5 -8 19 -31 30 -50 l21 -35 -7 40
c-3 22 -13 47 -20 56 -8 8 -20 33 -27 55 -12 34 -15 36 -21 18z"/>
<path d="M10270 8058 c0 -9 5 -20 10 -23 13 -8 13 5 0 25 -8 13 -10 13 -10 -2z"/>
<path d="M8288 8003 c7 -3 16 -2 19 1 4 3 -2 6 -13 5 -11 0 -14 -3 -6 -6z"/>
<path d="M10265 7980 c-3 -5 -1 -10 4 -10 6 0 11 5 11 10 0 6 -2 10 -4 10 -3
0 -8 -4 -11 -10z"/>
<path d="M8370 7970 c0 -5 5 -10 11 -10 5 0 7 5 4 10 -3 6 -8 10 -11 10 -2 0
-4 -4 -4 -10z"/>
<path d="M7550 7921 c-12 -24 -13 -51 -1 -51 12 0 27 20 35 48 9 28 -19 31
-34 3z"/>
<path d="M7170 7921 c0 -5 7 -11 15 -15 8 -3 15 -12 15 -21 0 -8 5 -15 10 -15
14 0 12 12 -6 38 -15 22 -34 29 -34 13z"/>
<path d="M8460 7911 c0 -17 18 -21 24 -6 3 9 0 15 -9 15 -8 0 -15 -4 -15 -9z"/>
<path d="M8155 7890 c4 -6 11 -8 16 -5 14 9 11 15 -7 15 -8 0 -12 -5 -9 -10z"/>
<path d="M8490 7893 c0 -13 29 -38 35 -31 3 3 -4 13 -15 23 -11 10 -20 13 -20
8z"/>
<path d="M8272 7870 c7 -11 16 -20 20 -20 3 0 13 -3 22 -6 28 -11 17 15 -14
31 -38 20 -43 19 -28 -5z"/>
<path d="M7522 7830 c-16 -26 -16 -73 0 -68 15 5 32 68 21 79 -5 5 -14 0 -21
-11z"/>
<path d="M8570 7833 c0 -5 12 -13 26 -20 26 -12 26 -12 9 7 -18 20 -35 26 -35
13z"/>
<path d="M7250 7826 c0 -4 7 -14 15 -22 8 -9 15 -11 15 -6 0 5 -7 15 -15 22
-8 7 -15 9 -15 6z"/>
<path d="M8230 7820 c0 -5 7 -7 15 -4 8 4 15 8 15 10 0 2 -7 4 -15 4 -8 0 -15
-4 -15 -10z"/>
<path d="M8358 7823 c7 -3 16 -2 19 1 4 3 -2 6 -13 5 -11 0 -14 -3 -6 -6z"/>
<path d="M8644 7787 c11 -7 27 -20 37 -29 23 -22 59 -41 66 -35 6 7 -98 77
-112 76 -5 0 -1 -6 9 -12z"/>
<path d="M8435 7780 c3 -5 11 -10 16 -10 6 0 7 5 4 10 -3 6 -11 10 -16 10 -6
0 -7 -4 -4 -10z"/>
<path d="M7172 7758 c-17 -17 -15 -38 3 -38 8 0 24 -14 34 -31 10 -17 28 -37
40 -45 11 -8 21 -20 21 -26 0 -6 9 -20 21 -32 11 -12 34 -39 50 -61 29 -37 29
-40 12 -52 -10 -7 -23 -17 -30 -23 -7 -5 -14 -10 -17 -10 -3 0 -25 -14 -48
-30 -24 -17 -54 -38 -68 -47 -27 -18 -204 -158 -231 -183 -9 -8 -30 -26 -45
-39 -62 -51 -208 -196 -235 -234 -16 -22 -38 -47 -49 -54 -11 -8 -20 -19 -20
-25 0 -6 -11 -26 -25 -44 -14 -18 -25 -37 -25 -43 0 -6 -4 -11 -10 -11 -14 0
-41 -56 -34 -73 3 -8 1 -18 -5 -22 -14 -8 -14 -25 -1 -25 6 0 10 7 10 15 0 8
4 15 9 15 5 0 12 15 15 33 8 43 53 106 61 85 3 -8 -1 -28 -10 -44 -8 -16 -15
-37 -15 -47 0 -10 -6 -20 -14 -23 -11 -4 -12 -12 -4 -35 l10 -29 34 43 c19 23
41 49 49 58 10 10 11 19 5 25 -14 14 30 111 66 148 16 15 61 60 99 99 39 38
79 79 90 89 102 96 142 132 173 155 20 15 50 40 66 55 17 16 33 28 37 28 4 0
11 9 14 20 3 11 15 20 25 20 11 0 26 12 34 28 8 15 26 34 40 42 14 7 26 17 26
22 0 4 7 8 15 8 8 0 15 3 15 8 0 4 5 14 10 22 8 12 14 10 39 -14 27 -26 31
-27 45 -13 24 24 20 32 -34 79 -27 24 -50 47 -50 51 0 4 -25 33 -55 65 -30 31
-68 78 -85 105 -31 50 -39 54 -58 35z"/>
<path d="M8490 7750 c0 -12 28 -25 36 -17 3 3 -4 10 -15 17 -15 7 -21 7 -21 0z"/>
<path d="M7320 7735 c0 -8 9 -19 20 -25 24 -13 27 2 4 24 -19 20 -24 20 -24 1z"/>
<path d="M7486 7688 c-18 -36 -19 -38 -8 -38 8 0 42 52 42 64 0 17 -21 2 -34
-26z"/>
<path d="M8776 7695 c25 -19 40 -19 24 0 -7 8 -20 15 -28 15 -13 0 -12 -3 4
-15z"/>
<path d="M8584 7685 c26 -20 42 -19 22 0 -8 8 -21 15 -28 15 -8 -1 -6 -6 6
-15z"/>
<path d="M8640 7651 c0 -5 9 -11 20 -14 24 -6 27 8 4 17 -21 8 -24 8 -24 -3z"/>
<path d="M7965 7626 c-16 -13 -52 -31 -80 -40 -27 -10 -57 -23 -65 -31 -8 -7
-24 -15 -34 -16 -13 -3 -25 -20 -36 -49 -8 -25 -21 -54 -27 -66 -7 -12 -8 -25
-2 -35 5 -7 9 -24 9 -36 0 -24 14 -31 25 -12 5 7 12 6 23 -4 10 -8 25 -17 35
-20 9 -4 21 -17 27 -31 14 -37 24 -38 58 -1 27 28 32 41 32 82 0 37 8 61 34
104 20 33 37 77 41 105 3 27 10 51 16 52 5 2 9 8 9 13 0 17 -35 9 -65 -15z"/>
<path d="M8720 7601 c0 -6 5 -13 10 -16 6 -3 10 1 10 9 0 9 -4 16 -10 16 -5 0
-10 -4 -10 -9z"/>
<path d="M8770 7561 c0 -5 9 -11 20 -14 24 -6 27 8 4 17 -21 8 -24 8 -24 -3z"/>
<path d="M8865 7500 c3 -5 8 -10 11 -10 2 0 4 5 4 10 0 6 -5 10 -11 10 -5 0
-7 -4 -4 -10z"/>
<path d="M9675 7490 c-3 -5 1 -10 9 -10 9 0 16 5 16 10 0 6 -4 10 -9 10 -6 0
-13 -4 -16 -10z"/>
<path d="M7640 7461 c0 -6 5 -13 10 -16 6 -3 10 1 10 9 0 9 -4 16 -10 16 -5 0
-10 -4 -10 -9z"/>
<path d="M7665 7350 c-3 -5 -1 -10 4 -10 6 0 11 5 11 10 0 6 -2 10 -4 10 -3 0
-8 -4 -11 -10z"/>
<path d="M7629 7302 c-9 -2 -19 -15 -22 -30 -4 -21 1 -32 23 -50 39 -30 194
-164 200 -172 12 -15 72 -52 76 -47 17 16 -28 77 -84 116 -22 15 -30 26 -22
31 8 5 6 11 -5 20 -9 8 -23 26 -31 42 -8 16 -23 28 -34 28 -10 0 -22 9 -25 20
-3 11 -12 20 -20 20 -7 0 -20 6 -27 13 -7 7 -20 11 -29 9z"/>
<path d="M7790 7290 c0 -5 7 -10 16 -10 8 0 12 5 9 10 -3 6 -10 10 -16 10 -5
0 -9 -4 -9 -10z"/>
<path d="M9300 7280 c0 -5 9 -10 20 -10 11 0 20 5 20 10 0 6 -9 10 -20 10 -11
0 -20 -4 -20 -10z"/>
<path d="M9270 7205 c0 -8 7 -15 16 -15 14 0 14 3 4 15 -7 8 -14 15 -16 15 -2
0 -4 -7 -4 -15z"/>
<path d="M7150 7149 c0 -5 5 -7 10 -4 6 3 10 8 10 11 0 2 -4 4 -10 4 -5 0 -10
-5 -10 -11z"/>
<path d="M9430 7081 c0 -6 5 -13 10 -16 6 -3 10 1 10 9 0 9 -4 16 -10 16 -5 0
-10 -4 -10 -9z"/>
<path d="M8825 6870 c-3 -5 -1 -10 4 -10 6 0 11 5 11 10 0 6 -2 10 -4 10 -3 0
-8 -4 -11 -10z"/>
<path d="M8575 6746 c-99 -50 -205 -102 -235 -115 -30 -14 -86 -39 -125 -57
-38 -18 -88 -39 -110 -47 -22 -8 -71 -27 -110 -41 -307 -118 -620 -196 -859
-215 -114 -10 -176 -6 -176 9 0 10 47 28 95 35 40 6 74 20 65 28 -3 2 -42 1
-87 -1 -61 -3 -80 -7 -77 -17 8 -20 -11 -26 -57 -19 l-42 7 29 13 29 12 -35 2
c-19 1 -39 2 -43 1 -26 -5 -173 21 -186 32 -18 15 -50 30 -67 32 -6 0 -23 11
-37 25 -20 19 -23 28 -16 43 7 12 6 27 -5 49 -9 17 -16 39 -16 50 0 21 -13 24
-29 5 -7 -9 -8 -38 -3 -88 l7 -74 50 -24 c28 -13 58 -28 67 -33 10 -4 27 -8
39 -8 12 0 19 -5 16 -12 -5 -15 -42 -13 -76 4 -20 11 -25 10 -37 -7 -8 -10
-14 -22 -14 -25 0 -17 91 -69 140 -80 30 -7 65 -16 78 -21 30 -12 290 -12 328
0 16 5 72 14 124 21 52 7 128 21 168 31 40 10 90 20 112 23 21 3 48 10 59 15
11 6 33 12 48 12 15 1 37 5 48 10 130 53 171 69 181 69 19 0 124 36 204 70 41
18 93 39 115 47 21 8 97 41 169 74 71 32 136 59 143 59 7 0 13 4 13 8 0 4 57
37 128 72 116 58 212 122 180 119 -7 -1 -94 -42 -193 -93z m-1730 -426 c4 -6
-8 -10 -29 -10 -20 0 -36 5 -36 10 0 6 13 10 29 10 17 0 33 -4 36 -10z"/>
<path d="M8328 6743 c6 -2 18 -2 25 0 6 3 1 5 -13 5 -14 0 -19 -2 -12 -5z"/>
<path d="M8138 6653 c7 -3 16 -2 19 1 4 3 -2 6 -13 5 -11 0 -14 -3 -6 -6z"/>
<path d="M7898 6563 c7 -3 16 -2 19 1 4 3 -2 6 -13 5 -11 0 -14 -3 -6 -6z"/>
<path d="M7748 6513 c6 -2 18 -2 25 0 6 3 1 5 -13 5 -14 0 -19 -2 -12 -5z"/>
<path d="M2245 6480 c-3 -5 -2 -10 4 -10 5 0 13 5 16 10 3 6 2 10 -4 10 -5 0
-13 -4 -16 -10z"/>
<path d="M7581 6468 c-16 -26 -13 -30 12 -17 12 7 38 16 57 19 l35 6 -47 5
c-36 3 -49 0 -57 -13z"/>
<path d="M2178 6418 c-43 -47 -44 -48 -22 -48 17 0 84 64 84 81 0 20 -27 6
-62 -33z"/>
<path d="M6565 6430 c3 -5 8 -10 11 -10 2 0 4 5 4 10 0 6 -5 10 -11 10 -5 0
-7 -4 -4 -10z"/>
<path d="M7460 6430 c-11 -7 -7 -10 18 -10 20 0 31 4 27 10 -8 13 -26 13 -45
0z"/>
<path d="M7286 6381 c5 -6 24 -6 44 -1 l35 8 -44 1 c-28 1 -41 -3 -35 -8z"/>
<path d="M7180 6363 c-30 -6 -51 -23 -28 -23 31 0 78 13 78 21 0 9 -7 9 -50 2z"/>
<path d="M9283 6315 c-24 -46 -25 -144 -1 -129 18 12 27 53 19 100 -6 43 -8
46 -18 29z"/>
<path d="M7652 6185 c0 -16 2 -22 5 -12 2 9 2 23 0 30 -3 6 -5 -1 -5 -18z"/>
<path d="M7676 6073 c4 -21 11 -47 17 -58 11 -19 11 -19 15 -1 2 10 -1 23 -7
29 -6 6 -11 21 -11 33 0 13 -5 26 -11 29 -7 5 -8 -5 -3 -32z"/>
<path d="M9092 5995 c-1 -16 -5 -41 -8 -55 -5 -22 -4 -23 6 -7 6 9 9 34 7 55
-3 32 -4 33 -5 7z"/>
<path d="M7710 5971 c0 -6 5 -13 10 -16 6 -3 10 1 10 9 0 9 -4 16 -10 16 -5 0
-10 -4 -10 -9z"/>
<path d="M9182 5944 c-1 -12 -5 -37 -8 -55 -5 -26 -4 -31 5 -23 7 7 11 29 8
55 -2 24 -4 34 -5 23z"/>
<path d="M10712 5940 c0 -14 2 -19 5 -12 2 6 2 18 0 25 -3 6 -5 1 -5 -13z"/>
<path d="M7730 5921 c0 -6 5 -13 10 -16 6 -3 10 1 10 9 0 9 -4 16 -10 16 -5 0
-10 -4 -10 -9z"/>
<path d="M7770 5822 c0 -11 7 -25 15 -32 8 -7 15 -19 15 -26 0 -8 4 -22 9 -32
5 -9 14 -28 20 -42 19 -40 34 -64 59 -88 29 -29 28 -12 -1 36 -13 20 -41 72
-61 115 -41 82 -56 101 -56 69z"/>
<path d="M7651 5804 c0 -11 3 -14 6 -6 3 7 2 16 -1 19 -3 4 -6 -2 -5 -13z"/>
<path d="M7740 5618 c0 -9 5 -20 10 -23 13 -8 13 5 0 25 -8 13 -10 13 -10 -2z"/>
<path d="M8956 5613 c-6 -14 -5 -15 5 -6 7 7 10 15 7 18 -3 3 -9 -2 -12 -12z"/>
<path d="M10750 5610 c0 -6 7 -10 15 -10 8 0 15 2 15 4 0 2 -7 6 -15 10 -8 3
-15 1 -15 -4z"/>
<path d="M7760 5574 c0 -3 11 -20 25 -38 14 -18 25 -38 25 -44 0 -7 5 -12 10
-12 6 0 10 -6 10 -12 1 -16 46 -72 132 -163 96 -101 185 -141 219 -98 13 15
12 16 -10 10 -29 -7 -71 11 -64 29 3 8 -5 16 -20 19 -14 4 -27 15 -30 26 -3
10 -13 19 -22 19 -12 0 -15 5 -10 20 8 25 -16 52 -35 40 -15 -9 -62 19 -92 55
-9 11 -31 36 -47 56 -17 20 -31 39 -31 42 0 3 -11 17 -24 31 -22 25 -36 32
-36 20z"/>
<path d="M7917 5566 c-3 -8 -2 -18 3 -21 13 -8 20 9 11 24 -6 10 -10 9 -14 -3z"/>
<path d="M8917 5563 c-2 -5 -7 -21 -11 -38 -6 -28 -5 -29 9 -11 8 11 15 28 15
38 0 19 -6 23 -13 11z"/>
<path d="M8859 5468 c-7 -13 -19 -28 -27 -34 -14 -10 -13 -13 6 -23 29 -16 35
-14 29 9 -4 14 1 25 14 33 10 6 19 17 19 24 0 21 -28 15 -41 -9z"/>
<path d="M7970 5460 c0 -5 5 -10 11 -10 5 0 7 5 4 10 -3 6 -8 10 -11 10 -2 0
-4 -4 -4 -10z"/>
<path d="M8012 5410 c14 -21 37 -34 47 -25 6 7 -38 44 -52 45 -4 0 -2 -9 5
-20z"/>
<path d="M8880 5409 c0 -5 5 -7 10 -4 6 3 10 8 10 11 0 2 -4 4 -10 4 -5 0 -10
-5 -10 -11z"/>
<path d="M8800 5390 c-13 -8 -12 -10 3 -10 9 0 17 -4 17 -10 0 -18 18 -10 23
10 6 22 -16 27 -43 10z"/>
<path d="M8124 5324 c3 -9 6 -18 6 -20 0 -2 7 -4 16 -4 9 0 23 -8 32 -19 13
-14 23 -16 42 -11 14 5 18 8 9 9 -9 1 -19 8 -23 16 -3 8 -13 15 -21 15 -9 0
-23 7 -31 15 -20 20 -38 19 -30 -1z"/>
<path d="M8210 5170 c0 -5 4 -10 9 -10 6 0 13 5 16 10 3 6 -1 10 -9 10 -9 0
-16 -4 -16 -10z"/>
<path d="M7120 3850 c0 -5 7 -10 16 -10 8 0 12 5 9 10 -3 6 -10 10 -16 10 -5
0 -9 -4 -9 -10z"/>
<path d="M6947 3769 c-17 -20 -77 -136 -77 -149 0 -13 64 -49 100 -56 29 -6
36 -2 96 61 64 68 72 92 27 80 -24 -6 -37 2 -114 69 -14 12 -19 11 -32 -5z"/>
<path d="M6498 3763 c12 -2 30 -2 40 0 9 3 -1 5 -23 4 -22 0 -30 -2 -17 -4z"/>
<path d="M7928 3293 c7 -3 16 -2 19 1 4 3 -2 6 -13 5 -11 0 -14 -3 -6 -6z"/>
<path d="M7840 3279 c0 -5 5 -7 10 -4 6 3 10 8 10 11 0 2 -4 4 -10 4 -5 0 -10
-5 -10 -11z"/>
<path d="M7770 3240 c-12 -8 -11 -10 7 -10 12 0 25 5 28 10 8 13 -15 13 -35 0z"/>
<path d="M7440 3133 c0 -10 48 -32 54 -25 3 3 -6 11 -20 19 -30 15 -34 16 -34
6z"/>
<path d="M7388 3093 c7 -3 16 -2 19 1 4 3 -2 6 -13 5 -11 0 -14 -3 -6 -6z"/>
<path d="M6755 2790 c-3 -5 1 -10 9 -10 9 0 16 5 16 10 0 6 -4 10 -9 10 -6 0
-13 -4 -16 -10z"/>
<path d="M6480 2511 c0 -5 9 -7 20 -4 11 3 20 7 20 9 0 2 -9 4 -20 4 -11 0
-20 -4 -20 -9z"/>
</g>
</svg>
